<svg width="15" height="19" viewBox="0 0 15 19" fill="none" xmlns="http://www.w3.org/2000/svg">
<g clip-path="url(#clip0_209_35929)">
<path d="M14.1415 16.9255C13.8854 16.6636 13.7192 16.3158 13.6665 15.9333C13.5504 15.091 13.4291 14.2463 13.3032 13.3994C9.84534 13.474 6.38752 13.4819 2.92969 13.4234C2.94769 15.2087 2.97868 16.9938 3.02274 18.779C6.48047 18.925 9.93822 18.9016 13.396 18.7087C13.9323 18.6782 14.3857 18.1931 14.4053 17.6313C14.4146 17.361 14.3198 17.1078 14.1415 16.9255Z" fill="#6AC6CA"/>
<path d="M4.6034 17.384C4.79213 16.0761 4.98907 14.7652 5.19127 13.4523C4.02141 13.4422 2.8515 13.4247 1.68163 13.3994C1.67732 13.4014 1.31376 15.9355 1.31834 15.9335C1.26567 16.3159 1.09941 16.6637 0.843338 16.9255C0.665016 17.1078 0.570218 17.3611 0.579477 17.6313C0.599189 18.1931 1.05242 18.6782 1.58889 18.7087C2.06697 18.7354 2.54505 18.7589 3.02312 18.779C3.81567 18.8134 4.48201 18.2186 4.6034 17.384Z" fill="#4DBA8D"/>
<path d="M8.89638 6.32274C8.89579 6.32197 7.49081 5.58009 7.4915 5.58106C7.02397 5.82718 6.55561 6.07465 6.08661 6.32274C3.90504 7.25474 2.31138 9.30094 1.94038 11.6878C1.85187 12.2587 1.76518 12.8287 1.68055 13.3977C1.55 14.2776 2.22332 15.1042 3.08577 15.1267C3.7004 15.1416 4.31504 15.1532 4.92963 15.1619C7.33724 13.2607 9.79863 11.2752 12.2414 9.35929C11.4944 8.01794 10.3217 6.92837 8.89638 6.32274Z" fill="#79CDAA"/>
<path d="M13.0449 11.6905C12.9161 10.8602 12.6403 10.0751 12.2436 9.36203C11.5535 8.41716 10.4603 7.8059 9.25381 7.80178C7.4272 7.79549 5.86237 9.18861 5.56371 11.0738C5.34816 12.4395 5.13647 13.8033 4.93188 15.1646C7.25442 15.1971 9.5769 15.1854 11.8994 15.1295C12.7619 15.1071 13.4352 14.2803 13.3046 13.4004C13.22 12.8314 13.1334 12.2614 13.0449 11.6905Z" fill="#91DADD"/>
<path d="M5.06006 3.13591C5.40084 3.7049 5.74465 4.27658 6.09061 4.84993C6.55627 5.09265 7.02297 5.33743 7.49051 5.58354C7.95804 5.33743 8.42475 5.09265 8.89039 4.84993C9.23636 4.27658 9.58017 3.7049 9.92095 3.13591C10.0724 2.88306 9.965 2.54719 9.70298 2.41983C9.48817 2.31557 9.2977 2.15497 9.15229 1.94885C8.96562 1.68424 8.77956 1.41983 8.59413 1.15569C8.03738 0.361188 6.94362 0.361188 6.38689 1.15569C6.20146 1.41983 6.01538 1.6843 5.82872 1.94885C5.68332 2.15497 5.49285 2.31552 5.27804 2.41983C5.016 2.54719 4.9086 2.88312 5.06006 3.13591Z" fill="#79CDAA"/>
<path d="M6.09076 4.84826C5.70437 4.85095 5.38893 5.18419 5.38673 5.59095C5.38453 5.99776 5.69772 6.32528 6.08576 6.32355C6.55407 6.32135 7.02234 6.32024 7.49064 6.32024C7.49064 5.828 7.49064 5.33575 7.49064 4.84351C7.02404 4.84351 6.55742 4.84509 6.09076 4.84826Z" fill="#6AC6CA"/>
<path d="M8.89247 4.84826C8.42585 4.84509 7.95924 4.84351 7.49257 4.84351C7.10618 4.84351 6.79213 5.17526 6.79126 5.58288C6.79043 5.99056 7.10449 6.3202 7.49257 6.32024C7.96089 6.32024 8.42916 6.32135 8.89747 6.32355C9.28551 6.32528 9.5987 5.99776 9.5965 5.59095C9.5943 5.18419 9.27887 4.85095 8.89247 4.84826Z" fill="#91DADD"/>
</g>
<defs>
<clipPath id="clip0_209_35929">
<rect width="14.5294" height="19" fill="white"/>
</clipPath>
</defs>
</svg>
