<svg width="13" height="13" viewBox="0 0 13 13" fill="none" xmlns="http://www.w3.org/2000/svg">
<g clip-path="url(#clip0_411_6889)">
<path d="M4.73735 7.17173C4.73735 7.00888 4.60526 6.87695 4.44228 6.87695H3.41259C3.24979 6.87695 3.11768 7.00888 3.11768 7.17173V8.20129C3.11768 8.36435 3.24979 8.49633 3.41259 8.49633H4.44228C4.60526 8.49633 4.73735 8.36435 4.73735 8.20129V7.17173Z" fill="#7BCEAD"/>
<path d="M7.31044 7.17222C7.31044 7.00937 7.17832 6.87744 7.01566 6.87744H5.98583C5.82304 6.87744 5.69092 7.00937 5.69092 7.17222V8.20178C5.69092 8.36484 5.82304 8.49682 5.98583 8.49682H7.01566C7.17832 8.49682 7.31044 8.36484 7.31044 8.20178V7.17222Z" fill="#7BCEAD"/>
<path d="M9.88627 7.17222C9.88627 7.00937 9.75416 6.87744 9.59136 6.87744H8.56167C8.39869 6.87744 8.2666 7.00937 8.2666 7.17222V8.20178C8.2666 8.36484 8.39869 8.49682 8.56167 8.49682H9.59136C9.75416 8.49682 9.88627 8.36484 9.88627 8.20178V7.17222Z" fill="#7BCEAD"/>
<path d="M4.73735 9.74611C4.73735 9.583 4.60526 9.45117 4.44228 9.45117H3.41259C3.24979 9.45117 3.11768 9.583 3.11768 9.74611V10.7755C3.11768 10.9384 3.24979 11.0704 3.41259 11.0704H4.44228C4.60526 11.0704 4.73735 10.9384 4.73735 10.7755V9.74611Z" fill="#7BCEAD"/>
<path d="M7.31044 9.74562C7.31044 9.58251 7.17832 9.45068 7.01566 9.45068H5.98583C5.82304 9.45068 5.69092 9.58251 5.69092 9.74562V10.775C5.69092 10.9379 5.82304 11.0699 5.98583 11.0699H7.01566C7.17832 11.0699 7.31044 10.9379 7.31044 10.775V9.74562Z" fill="#7BCEAD"/>
<path d="M9.88627 9.74562C9.88627 9.58251 9.75416 9.45068 9.59149 9.45068H8.56167C8.39869 9.45068 8.2666 9.58251 8.2666 9.74562V10.775C8.2666 10.9379 8.39869 11.0699 8.56167 11.0699H9.59149C9.75416 11.0699 9.88627 10.9379 9.88627 10.775V9.74562Z" fill="#7BCEAD"/>
<path d="M11.7253 1.44803V3.02059C11.7253 3.73138 11.1487 4.30416 10.4381 4.30416H9.62599C8.91526 4.30416 8.331 3.73138 8.331 3.02059V1.44238H4.67083V3.02059C4.67083 3.73138 4.0866 4.30416 3.37598 4.30416H2.56376C1.85311 4.30416 1.27652 3.73138 1.27652 3.02059V1.44803C0.655404 1.46675 0.14502 1.9807 0.14502 2.61242V11.8284C0.14502 12.472 0.666669 13.0006 1.31026 13.0006H11.6916C12.3342 13.0006 12.8568 12.4709 12.8568 11.8284V2.61242C12.8568 1.9807 12.3465 1.46675 11.7253 1.44803ZM11.3482 11.2545C11.3482 11.5326 11.1227 11.7583 10.8444 11.7583H2.13524C1.857 11.7583 1.63148 11.5326 1.63148 11.2545V6.49411C1.63148 6.21587 1.85697 5.99022 2.13524 5.99022H10.8444C11.1226 5.99022 11.3481 6.21587 11.3481 6.49411L11.3482 11.2545Z" fill="#7BCEAD"/>
<path d="M2.55965 3.46057H3.3629C3.60671 3.46057 3.80439 3.26318 3.80439 3.01937V0.441356C3.80439 0.197522 3.60671 0 3.3629 0H2.55965C2.31582 0 2.11816 0.197522 2.11816 0.441356V3.01937C2.11816 3.26318 2.31582 3.46057 2.55965 3.46057Z" fill="#7BCEAD"/>
<path d="M9.61383 3.46057H10.4171C10.6607 3.46057 10.8584 3.26318 10.8584 3.01937V0.441356C10.8584 0.197522 10.6607 0 10.4171 0H9.61383C9.37005 0 9.17236 0.197522 9.17236 0.441356V3.01937C9.17236 3.26318 9.37005 3.46057 9.61383 3.46057Z" fill="#7BCEAD"/>
</g>
<defs>
<clipPath id="clip0_411_6889">
<rect width="13" height="13" fill="white"/>
</clipPath>
</defs>
</svg>
