<svg width="20" height="15" viewBox="0 0 20 15" fill="none" xmlns="http://www.w3.org/2000/svg">
<path d="M18.75 12.5C18.75 12.8315 18.6183 13.1495 18.3839 13.3839C18.1495 13.6183 17.8315 13.75 17.5 13.75H2.5C2.16848 13.75 1.85054 13.6183 1.61612 13.3839C1.3817 13.1495 1.25 12.8315 1.25 12.5V5C1.25 4.66848 1.3817 4.35054 1.61612 4.11612C1.85054 3.8817 2.16848 3.75 2.5 3.75H3.965C4.95905 3.74946 5.91221 3.35425 6.615 2.65125L7.6525 1.61625C7.88625 1.38242 8.20312 1.25073 8.53375 1.25H11.4637C11.7952 1.25007 12.1131 1.38181 12.3475 1.61625L13.3825 2.65125C13.7308 2.99964 14.1443 3.276 14.5994 3.46453C15.0546 3.65305 15.5424 3.75006 16.035 3.75H17.5C17.8315 3.75 18.1495 3.8817 18.3839 4.11612C18.6183 4.35054 18.75 4.66848 18.75 5V12.5ZM2.5 2.5C1.83696 2.5 1.20107 2.76339 0.732233 3.23223C0.263392 3.70107 0 4.33696 0 5L0 12.5C0 13.163 0.263392 13.7989 0.732233 14.2678C1.20107 14.7366 1.83696 15 2.5 15H17.5C18.163 15 18.7989 14.7366 19.2678 14.2678C19.7366 13.7989 20 13.163 20 12.5V5C20 4.33696 19.7366 3.70107 19.2678 3.23223C18.7989 2.76339 18.163 2.5 17.5 2.5H16.035C15.372 2.49986 14.7362 2.23637 14.2675 1.7675L13.2325 0.7325C12.7638 0.263627 12.128 0.000141594 11.465 0H8.535C7.87201 0.000141594 7.23623 0.263627 6.7675 0.7325L5.7325 1.7675C5.26377 2.23637 4.62799 2.49986 3.965 2.5H2.5Z" fill="#696969"/>
<path d="M10 11.25C9.1712 11.25 8.37634 10.9208 7.79029 10.3347C7.20424 9.74866 6.875 8.9538 6.875 8.125C6.875 7.2962 7.20424 6.50134 7.79029 5.91529C8.37634 5.32924 9.1712 5 10 5C10.8288 5 11.6237 5.32924 12.2097 5.91529C12.7958 6.50134 13.125 7.2962 13.125 8.125C13.125 8.9538 12.7958 9.74866 12.2097 10.3347C11.6237 10.9208 10.8288 11.25 10 11.25ZM10 12.5C11.1603 12.5 12.2731 12.0391 13.0936 11.2186C13.9141 10.3981 14.375 9.28532 14.375 8.125C14.375 6.96468 13.9141 5.85188 13.0936 5.03141C12.2731 4.21094 11.1603 3.75 10 3.75C8.83968 3.75 7.72688 4.21094 6.90641 5.03141C6.08594 5.85188 5.625 6.96468 5.625 8.125C5.625 9.28532 6.08594 10.3981 6.90641 11.2186C7.72688 12.0391 8.83968 12.5 10 12.5ZM3.75 5.625C3.75 5.79076 3.68415 5.94973 3.56694 6.06694C3.44973 6.18415 3.29076 6.25 3.125 6.25C2.95924 6.25 2.80027 6.18415 2.68306 6.06694C2.56585 5.94973 2.5 5.79076 2.5 5.625C2.5 5.45924 2.56585 5.30027 2.68306 5.18306C2.80027 5.06585 2.95924 5 3.125 5C3.29076 5 3.44973 5.06585 3.56694 5.18306C3.68415 5.30027 3.75 5.45924 3.75 5.625Z" fill="#696969"/>
</svg>
