<svg width="15" height="15" viewBox="0 0 15 15"  xmlns="http://www.w3.org/2000/svg">
 <path d="M9.17822 2.10988L2.14746 9.14062L5.86236 12.8555L12.8931 5.82477L9.17822 2.10988Z" />
 <path d="M14.7745 2.98935L12.0309 0.206812C11.7585 -0.0656042 11.3304 -0.0656042 11.0774 0.187354C11.0774 0.187354 11.0774 0.187354 11.058 0.206812L9.85156 1.41323L13.5681 5.14922L14.7745 3.94281C15.0469 3.67039 15.0469 3.24231 14.7745 2.98935Z" />
 <path d="M1.60297 9.95508L0.0657637 14.0802C-0.0704445 14.4305 0.10468 14.8196 0.45493 14.9559C0.610596 15.0142 0.785721 15.0142 0.941388 14.9559L5.06655 13.3992L1.60297 9.95508Z" />
</svg>
