<svg fill="none" height="25" viewBox="0 0 20 25" width="20" xmlns="http://www.w3.org/2000/svg"><path d="m19.111 12.2224c-1.25-1.3195-2.9167-2.2222-4.6528-2.56945-.7639-.20834-1.5277-.34722-2.2916-.41667 1.9444-2.29167 1.5972-5.76389-.6945-7.70833-2.29165-1.944446-5.76387-1.5972237-7.70831.69444-1.94445 2.29167-1.59722 5.76389.69444 7.70834.41667.34717.83334.62497 1.25.76387v1.5278l-1.11111-1.0417c-.97222-.9722-2.56944-.9722-3.61111 0-.9722225.9722-1.0416672 2.5-.069445 3.4722l3.194445 3.75c.13889.9723.48611 1.875.97222 2.7084.34722.625.83334 1.25 1.31945 1.7361v1.3194c0 .4167.27777.6945.69444.6945h9.44448c.3472 0 .6944-.3472.6944-.6945v-1.8055c1.3195-1.5972 2.0139-3.6111 2.0139-5.625v-4.0278c.0694-.2778 0-.4167-.1389-.4861zm-15.27777-6.52779c0-2.29166 1.875-4.09722 4.16667-4.02777 2.2917 0 4.0972 1.875 4.0278 4.16666 0 1.25-.5556 2.36111-1.5278 3.125v-3.47222c-.0355-.60182-.2998-1.16729-.7388-1.58047-.43901-.41319-1.01944-.64279-1.62231-.64175-1.25-.06945-2.36111.97222-2.36111 2.22222v3.61111c-1.18056-.69444-1.875-2.01389-1.94445-3.40278zm14.09727 10.97219c.0694 1.8056-.5556 3.5417-1.7362 4.9306-.1388.1389-.2777.2778-.2777.4861v1.4583h-8.05559v-.9722c0-.2083-.13889-.4167-.27778-.5555-.48611-.4167-.90278-.9028-1.25-1.5278-.41666-.6945-.69444-1.5278-.83333-2.3611 0-.1389-.06945-.2778-.13889-.4167l-3.33333-3.9583c-.20834-.2084-.34723-.4861-.34723-.8334 0-.2777.13889-.625.34723-.8333.48611-.4167 1.18055-.4167 1.66666 0l2.01389 2.0139v2.0833l1.31945-.6944v-10.00002c.06944-.48611.48611-.90278 1.04166-.83333.48611 0 .97223.34722.97223.83333v7.98612l1.38893.2778v-3.1945c.0694-.0694.1388-.0694.2083-.1389.4861 0 .9722.0695 1.4583.1389v3.5417l1.1111.2083v-3.6111l.8334.2083c.3472.0695.6944.2084 1.0416.3473v3.4722l1.1111.2083v-3.1944c.625.2778 1.1806.6944 1.6667 1.1805z" fill="#7acdac"/></svg>