<svg width="20" height="20" viewBox="0 0 20 20" fill="none" xmlns="http://www.w3.org/2000/svg">
<path d="M17.778 2.22217H2.22244C1.92775 2.22217 1.64514 2.33923 1.43676 2.5476C1.22839 2.75598 1.11133 3.03859 1.11133 3.33328V16.6666C1.11133 16.9613 1.22839 17.2439 1.43676 17.4523C1.64514 17.6607 1.92775 17.7777 2.22244 17.7777H17.778C18.0727 17.7777 18.3553 17.6607 18.5637 17.4523C18.772 17.2439 18.8891 16.9613 18.8891 16.6666V3.33328C18.8891 3.03859 18.772 2.75598 18.5637 2.5476C18.3553 2.33923 18.0727 2.22217 17.778 2.22217ZM2.22244 16.6666V3.33328H17.778V16.6666H2.22244Z" fill="#696969"/>
<path d="M4.95573 7.77767C5.28536 7.77767 5.6076 7.67992 5.88168 7.49679C6.15576 7.31365 6.36938 7.05335 6.49553 6.74881C6.62167 6.44427 6.65468 6.10915 6.59037 5.78585C6.52606 5.46255 6.36733 5.16558 6.13424 4.93249C5.90115 4.6994 5.60418 4.54067 5.28088 4.47636C4.95758 4.41205 4.62247 4.44506 4.31792 4.5712C4.01338 4.69735 3.75308 4.91097 3.56995 5.18505C3.38681 5.45913 3.28906 5.78137 3.28906 6.111C3.28906 6.55303 3.46466 6.97695 3.77722 7.28951C4.08978 7.60208 4.5137 7.77767 4.95573 7.77767ZM4.95573 5.22211C5.13177 5.22101 5.30417 5.27221 5.45107 5.36921C5.59798 5.46621 5.71278 5.60465 5.78091 5.76697C5.84904 5.9293 5.86743 6.10819 5.83377 6.28099C5.8001 6.45378 5.71588 6.61268 5.59179 6.73755C5.4677 6.86242 5.30933 6.94763 5.13675 6.98238C4.96417 7.01713 4.78516 6.99986 4.62242 6.93275C4.45967 6.86564 4.32052 6.75171 4.22259 6.60542C4.12467 6.45912 4.0724 6.28704 4.0724 6.111C4.07385 5.87718 4.16739 5.65334 4.33273 5.488C4.49807 5.32266 4.7219 5.22913 4.95573 5.22767V5.22211Z" fill="#696969"/>
<path d="M12.6557 8.53899L9.65573 11.539L7.43351 9.31677C7.32942 9.2133 7.18861 9.15522 7.04184 9.15522C6.89507 9.15522 6.75426 9.2133 6.65017 9.31677L3.28906 12.7223V14.2945L7.06128 10.5223L8.88906 12.3223L6.80573 14.4057H8.33351L13.028 9.71122L16.6668 13.3334V11.7668L13.4391 8.53899C13.335 8.43552 13.1942 8.37744 13.0474 8.37744C12.9006 8.37744 12.7598 8.43552 12.6557 8.53899Z" fill="#696969"/>
</svg>
