<svg width="103" height="102" fill="none" xmlns="http://www.w3.org/2000/svg">
  <defs>
    <linearGradient id="a" x1="22.683" y1="1" x2="22.683" y2="40.418" gradientUnits="userSpaceOnUse">
      <stop stop-color="#fff"/>
      <stop offset="1" stop-color="#fff"/>
    </linearGradient>
    <linearGradient id="b" x1="28.798" y1="3.354" x2="28.798" y2="10.56" gradientUnits="userSpaceOnUse">
      <stop stop-color="#fff"/>
      <stop offset="1" stop-color="#fff"/>
    </linearGradient>
    <linearGradient id="c" x1="26.664" y1="1" x2="26.664" y2="73.07" gradientUnits="userSpaceOnUse">
      <stop stop-color="#fff"/>
      <stop offset="1" stop-color="#fff"/>
    </linearGradient>
    <linearGradient id="d" x1="33.583" y1="1" x2="33.583" y2="101" gradientUnits="userSpaceOnUse">
      <stop stop-color="#fff"/>
      <stop offset="1" stop-color="#fff"/>
    </linearGradient>
    <linearGradient id="e" x1="90.587" y1="29.681" x2="90.587" y2="56.008" gradientUnits="userSpaceOnUse">
      <stop stop-color="#fff"/>
      <stop offset="1" stop-color="#fff"/>
    </linearGradient>
    <linearGradient id="f" x1="87.979" y1="18.649" x2="87.979" y2="64.273" gradientUnits="userSpaceOnUse">
      <stop stop-color="#fff"/>
      <stop offset="1" stop-color="#fff"/>
    </linearGradient>
    <linearGradient id="g" x1="80.732" y1="12.473" x2="80.732" y2="76.163" gradientUnits="userSpaceOnUse">
      <stop stop-color="#fff"/>
      <stop offset="1" stop-color="#fff"/>
    </linearGradient>
    <linearGradient id="h" x1="72.036" y1="7.472" x2="72.036" y2="84.983" gradientUnits="userSpaceOnUse">
      <stop stop-color="#fff"/>
      <stop offset="1" stop-color="#fff"/>
    </linearGradient>
    <linearGradient id="i" x1="58.774" y1="4.383" x2="58.774" y2="92.782" gradientUnits="userSpaceOnUse">
      <stop stop-color="#fff"/>
      <stop offset="1" stop-color="#fff"/>
    </linearGradient>
    <linearGradient id="j" x1="46.281" y1="2.177" x2="46.281" y2="99.941" gradientUnits="userSpaceOnUse">
      <stop stop-color="#fff"/>
      <stop offset="1" stop-color="#fff"/>
    </linearGradient>
  </defs>
  <path d="M42.477 1s1.31 1.951 1.618 3.383c.277 1.292.439 2.137 0 3.383-.722 2.048-4.413 3.383-4.413 3.383s-7.24 2.12-11.62 4.118c-4.258 1.943-6.57 3.252-10.442 5.883-3.784 2.571-5.99 4.016-9.119 7.354-2.726 2.909-4.294 4.648-6.03 8.237C1.797 38.133 1 40.418 1 40.418" stroke="url(#a)"/>
  <path d="M20.856 10.56s2.61-1.923 4.412-2.941c2.037-1.15 3.253-1.678 5.442-2.5 2.297-.864 6.03-1.765 6.03-1.765" stroke="url(#b)"/>
  <path d="M48.066 1s1.322 1.23 1.911 2.206c.724 1.197 1.471 2.446 1.471 3.824 0 1.379-.147 2.207-.294 3.089-.147.883-1.278 2.605-2.5 3.971-1.394 1.558-2.528 2.073-4.266 3.236-3.33 2.23-9.118 4.706-9.118 4.706s-6.166 3.05-9.855 5.442c-2.863 1.857-7.06 5.148-7.06 5.148s-4.717 3.238-7.207 5.884c-2.251 2.392-3.391 3.9-5 6.765-1.349 2.4-1.99 3.84-2.795 6.472-.837 2.736-1.064 4.357-1.324 7.207-.26 2.86-.13 4.485 0 7.354.12 2.65.589 6.766.589 6.766" stroke="url(#c)"/>
  <path d="M55.273 1s1.871 2.37 2.647 4.118c.656 1.479.964 2.368 1.177 3.971.311 2.346.185 3.795-.589 6.03-.487 1.409-.858 2.2-1.765 3.384-1.217 1.587-2.309 2.123-3.97 3.235-2.885 1.93-4.975 2.15-8.09 3.677-5.125 2.513-12.796 7.06-12.796 7.06s-5.229 3.127-8.237 5.59c-3.331 2.726-5.216 4.347-7.795 7.795-2.22 2.966-3.255 4.828-4.707 8.236-1.088 2.557-2.206 6.766-2.206 6.766s-1.03 5.445-1.03 8.972c0 3.526-.051 5.615 1.03 8.972 1.136 3.526 2.374 5.358 4.707 8.236 1.893 2.336 5.589 5.295 5.589 5.295s3.458 2.548 5.883 3.824c2.737 1.44 7.354 2.942 7.354 2.942s4.965 1.419 8.236 1.765c4.747.502 12.208-.589 12.208-.589" stroke="url(#d)"/>
  <path d="M97.485 29.68s.398 4.51 0 7.355c-.441 3.149-.914 4.96-2.353 7.795-1.285 2.53-2.292 3.845-4.266 5.883-2.462 2.542-7.354 5.295-7.354 5.295" stroke="url(#e)"/>
  <path d="M89.984 18.65s1.063 3.814 1.323 6.324c.26 2.514 0 6.471 0 6.471s-.002 3.618-1.323 6.03c-1.322 2.413-1.438 3.057-3.383 5.002-1.618 1.617-4.118 3.235-6.03 4.853-1.913 1.618-4.413 4.118-5.001 4.854-.589.735-1.177 2.5-1.324 4.265-.147 1.765.147 3.383.735 4.707.589 1.323 1.03 2.067 2.5 2.5 1.472.433 3.084.71 5.149.588 2.311-.135 3.835-.587 6.03-1.323 2.719-.912 4.096-1.998 6.177-3.971 1.968-1.866 2.849-3.194 4.118-5.59 1.175-2.215 1.66-3.582 2.207-6.03.491-2.198.588-5.736.588-5.736" stroke="url(#f)"/>
  <path d="M83.218 12.473s1.165 4.079 1.47 6.765c.345 3.025.579 4.807 0 7.796-.5 2.587-1.104 4.004-2.352 6.324-1.323 2.458-2.386 3.672-4.266 5.736-2.525 2.773-7.354 6.178-7.354 6.178s-4.438 2.976-6.765 5.442c-1.318 1.395-2.078 2.192-3.09 3.824-.744 1.2-1.361 1.846-1.617 3.236-.166.903-.148 1.446 0 2.353.146.896.209 1.466.735 2.206.474.665.896.944 1.618 1.324.987.519 1.718.297 2.795.588 1.35.365 2.157.502 3.383 1.177 1.147.631 1.835 1.031 2.647 2.059.606.766.792 1.309 1.177 2.206.45 1.052.4 1.757.882 2.795.458.982.65 1.645 1.471 2.353.68.587 1.183.827 2.06 1.03.839.193 1.933.324 2.794.294 2.257-.08 2.996-.343 5.148-1.03 1.835-.586 4.412-2.206 4.412-2.206s4.05-2.632 6.324-4.707c1.802-1.643 2.806-2.606 4.266-4.56 1.586-2.122 3.383-5.883 3.383-5.883" stroke="url(#g)"/>
  <path d="M76.894 7.472s1.168 3.352 1.47 5.589c.332 2.447 0 6.324 0 6.324s-.187 3.579-.882 5.736c-.756 2.348-1.463 3.616-2.942 5.59-1.608 2.145-5 4.706-5 4.706l-9.12 6.619-6.177 5-4.56 4.266c-1.78 1.665-2.008 2.435-2.794 4.265-.451 1.052-.625 1.68-.882 2.795-.274 1.187-.494 1.871-.441 3.088.04.934.1 1.483.44 2.354.437 1.112.843 1.74 1.766 2.5 1.22 1.005 2.323.83 3.824 1.324 1.657.545 2.725.504 4.265 1.323 1.268.675 1.937 1.18 2.942 2.207 1.337 1.366 1.696 2.46 2.647 4.118.741 1.293 1.765 3.383 1.765 3.383s1.012 2.008 2.06 2.941c1.112.992 1.63 1.209 2.794 1.765 1.773.847 3.126 1.088 4.853 1.324 1.423.194 4.56.294 4.56.294s3.326-.178 5.883-.882c1.738-.48 2.638-.99 4.266-1.765 2.02-.963 3.153-1.533 5-2.795 1.452-.992 2.31-1.528 3.53-2.794 1.052-1.092 2.353-3.089 2.353-3.089" stroke="url(#h)"/>
  <path d="M69.98 4.383s1.16 2.727 1.619 4.56c.48 1.914.654 3.028.735 5 .061 1.493.1 2.35-.147 3.824-.32 1.917-.73 2.978-1.618 4.707-1.049 2.044-3.53 4.706-3.53 4.706s-2.458 2.923-4.265 4.56c-3.13 2.833-8.972 6.03-8.972 6.03s-4.778 2.786-7.648 4.854c-2.948 2.123-4.675 3.278-7.207 5.883-1.62 1.666-2.48 2.663-3.824 4.56-1.607 2.267-2.61 3.555-3.53 6.177-.624 1.775-.918 2.828-1.03 4.706-.11 1.843-.112 2.946.442 4.707.362 1.152.56 1.859 1.323 2.795.489.598.832.888 1.471 1.323 1.023.697 1.742.873 2.942 1.177 2.227.564 3.586-.067 5.883 0 2.07.06 3.285-.206 5.295.294 1.376.343 2.263.453 3.383 1.324 1.07.832 2.059 2.794 2.059 2.794s1.155 2.884 2.206 4.56c.72 1.148 2.06 2.794 2.06 2.794s1.144 1.627 2.058 2.5c.98.937 2.795 2.06 2.795 2.06s2.416 1.361 4.118 1.765c1.625.385 2.89.707 4.56.735 2.647.045 3.89-.294 6.471-.882 1.594-.363 2.45-.725 3.971-1.324 2.2-.866 5.442-2.647 5.442-2.647" stroke="url(#i)"/>
  <path d="M62.48 2.177s1.216 2.09 1.765 3.53c.694 1.822 1.176 4.853 1.176 4.853s.392 2.51.294 4.119c-.114 1.878-.272 2.984-1.03 4.706-.698 1.59-1.336 2.389-2.5 3.677-.927 1.027-1.552 1.508-2.647 2.354-2.199 1.698-6.177 3.53-6.177 3.53s-4.184 2.136-6.766 3.676c-2.531 1.51-3.897 2.447-6.325 4.119-2.1 1.446-3.334 2.192-5.295 3.824-2.903 2.417-4.402 3.966-6.765 6.913-1.994 2.485-3.071 3.948-4.56 6.765-1.25 2.368-1.903 3.753-2.647 6.325-.856 2.957-1.177 7.795-1.177 7.795s-.419 3.89 0 6.325c.327 1.897.584 2.997 1.471 4.706.942 1.815 1.595 2.898 3.236 4.118 1.634 1.216 2.858 1.5 4.854 1.912 2.362.488 3.623.32 6.03.147 2.059-.147 5.253-.624 8.236.442 1.792.64 2.74 1.217 4.266 2.353 1.628 1.213 3.677 3.677 3.677 3.677s2.312 2.368 3.97 3.677c1.264.997 1.97 1.586 3.384 2.353 1.312.713 2.072 1.148 3.53 1.471 1.794.398 2.88.499 4.706.294 1.635-.183 2.611-.518 4.118-1.176.66-.288 1.618-.883 1.618-.883" stroke="url(#j)"/>
</svg>
