<svg width="10" height="13" viewBox="0 0 10 13" fill="none" xmlns="http://www.w3.org/2000/svg">
<defs>
<linearGradient id="paint0_linear_209_37220" x1="-7.73208" y1="33.9189" x2="40.0899" y2="11.0062" gradientUnits="userSpaceOnUse">
<stop stop-color="#7ACDAC"/>
<stop offset="0.12" stop-color="#7ACDAC"/>
</linearGradient>
</defs>
<path d="M5.4435 0.753906C2.9439 0.753906 0.921875 2.77593 0.921875 5.27553C0.921875 6.57613 1.57218 7.7548 2.21232 8.84202C2.99471 10.1935 3.92951 11.4534 5.01674 12.5711C5.25044 12.8148 5.63666 12.8148 5.88042 12.5711C6.83555 11.6261 7.6789 10.5592 8.39017 9.42119C9.15224 8.19162 9.97528 6.76908 9.97528 5.27553C9.96512 2.7861 7.94309 0.753906 5.4435 0.753906ZM5.4435 7.89705C3.92952 7.89705 2.70004 6.66758 2.70004 5.1536C2.70004 3.63961 3.92952 2.41014 5.4435 2.41014C6.95748 2.41014 8.18695 3.62945 8.18695 5.1536C8.18695 6.67774 6.95748 7.89705 5.4435 7.89705Z" fill="white"/>
<path d="M5.4435 0.753906C2.9439 0.753906 0.921875 2.77593 0.921875 5.27553C0.921875 6.57613 1.57218 7.7548 2.21232 8.84202C2.99471 10.1935 3.92951 11.4534 5.01674 12.5711C5.25044 12.8148 5.63666 12.8148 5.88042 12.5711C6.83555 11.6261 7.6789 10.5592 8.39017 9.42119C9.15224 8.19162 9.97528 6.76908 9.97528 5.27553C9.96512 2.7861 7.94309 0.753906 5.4435 0.753906ZM5.4435 7.89705C3.92952 7.89705 2.70004 6.66758 2.70004 5.1536C2.70004 3.63961 3.92952 2.41014 5.4435 2.41014C6.95748 2.41014 8.18695 3.62945 8.18695 5.1536C8.18695 6.67774 6.95748 7.89705 5.4435 7.89705Z" fill="url(#paint0_linear_209_37220)"/>
</svg>
