<svg width="20" height="20" viewBox="0 0 20 20" fill="none" xmlns="http://www.w3.org/2000/svg">
<path d="M11.9669 12.8055C11.624 12.8187 11.2846 12.733 10.9891 12.5587C10.6936 12.3843 10.4545 12.1287 10.3002 11.8222C10.1293 11.4187 10.1213 10.9648 10.278 10.5555C10.4748 10.0466 10.864 9.63553 11.3613 9.4111C11.7979 9.18231 12.3067 9.13326 12.779 9.27443C13.2513 9.4156 13.6497 9.73579 13.8891 10.1667C13.9818 10.3678 14.0334 10.5853 14.041 10.8066C14.0487 11.0279 14.0121 11.2485 13.9336 11.4555C13.8348 11.7119 13.6856 11.9458 13.4948 12.1434C13.3039 12.3409 13.0752 12.4981 12.8224 12.6055C12.5542 12.7307 12.2628 12.7988 11.9669 12.8055ZM12.2669 10.0778C12.0755 10.0765 11.886 10.1163 11.7113 10.1944C11.4359 10.3241 11.221 10.5549 11.1113 10.8389C11.0699 10.9344 11.0485 11.0375 11.0485 11.1417C11.0485 11.2458 11.0699 11.3489 11.1113 11.4444C11.2476 11.669 11.4662 11.8313 11.7206 11.8967C11.9749 11.9621 12.2448 11.9254 12.4724 11.7944C12.7563 11.6723 12.98 11.4425 13.0947 11.1555C13.1359 11.059 13.1572 10.955 13.1572 10.85C13.1572 10.745 13.1359 10.641 13.0947 10.5444C13.0155 10.3959 12.8955 10.273 12.7489 10.1903C12.6022 10.1076 12.435 10.0686 12.2669 10.0778Z" fill="#7BCEAD"/>
<path d="M8.99466 18.8165C7.99118 18.8339 6.99416 18.6529 6.06081 18.2839C5.12746 17.9149 4.27616 17.3653 3.55577 16.6665C2.79318 15.9544 2.18327 15.0948 1.76306 14.1397C1.34286 13.1847 1.12112 12.1543 1.11133 11.1109C1.11133 8.6665 2.22244 6.19984 4.26688 4.1665C5.21915 3.20826 6.35379 2.45056 7.60379 1.93815C8.85379 1.42575 10.1938 1.16903 11.5447 1.18317H11.6113C13.4613 1.18317 15.4169 2.01095 15.6336 3.81095C15.7502 4.79428 15.3058 5.73873 14.9169 6.58873C14.6113 7.23873 14.3002 7.9165 14.5169 8.14984C14.7336 8.38317 15.0724 8.2165 15.678 8.03873C16.2736 7.80043 16.9234 7.73122 17.5558 7.83873C17.7799 7.90253 17.9882 8.01262 18.1671 8.1619C18.3461 8.31118 18.4917 8.49633 18.5947 8.70539C19.1169 9.72206 18.8558 11.2998 18.4669 12.3387C17.9661 13.7106 17.1608 14.9509 16.1113 15.9665C14.1677 17.7552 11.6357 18.7692 8.99466 18.8165ZM11.5447 2.31095C10.3372 2.30115 9.1401 2.53413 8.02445 2.99604C6.9088 3.45795 5.89736 4.13938 5.05022 4.99984C3.21688 6.79428 2.22244 8.97762 2.22244 11.1109C2.23202 12.0089 2.42411 12.8954 2.78703 13.7168C3.14995 14.5381 3.67612 15.2771 4.33355 15.8887C7.32244 18.8054 12.4558 17.861 15.3724 15.1498C16.2866 14.2511 16.9888 13.1598 17.428 11.9554C17.8169 10.8998 17.8947 9.77762 17.6058 9.22206C17.5741 9.15004 17.5276 9.08556 17.4691 9.03288C17.4107 8.98021 17.3418 8.94054 17.2669 8.9165C16.8333 8.87782 16.3969 8.94453 15.9947 9.11095C15.2669 9.32762 14.328 9.60539 13.7058 8.9165C12.9724 8.13873 13.4502 7.11095 13.9113 6.13873C14.3012 5.48215 14.5137 4.73552 14.528 3.97206C14.3947 2.86095 12.9669 2.33317 11.6058 2.30539L11.5447 2.31095Z" fill="#7BCEAD"/>
<path d="M13.2613 14.8055C13.1983 14.5992 13.0897 14.4097 12.9435 14.251C12.7973 14.0924 12.6173 13.9686 12.4169 13.8889L12.2224 13.8333L11.9669 14.6833H12.0558C12.1329 14.7116 12.2029 14.7567 12.2605 14.8153C12.3181 14.8739 12.3621 14.9446 12.3891 15.0222C12.4835 15.3555 12.1613 15.75 11.6891 15.8833C11.2169 16.0167 10.7391 15.8444 10.6447 15.5167L9.7891 15.7555C9.90015 16.0804 10.1145 16.36 10.3994 16.5516C10.6843 16.7432 11.0241 16.8363 11.3669 16.8167C11.5546 16.8143 11.7413 16.7882 11.9224 16.7389C12.3559 16.6591 12.7401 16.4109 12.991 16.0486C13.2419 15.6863 13.3391 15.2393 13.2613 14.8055ZM8.37243 14.2167C8.28191 13.9466 8.11718 13.7075 7.89709 13.5267C7.67701 13.3459 7.41047 13.2308 7.12799 13.1944L6.97799 14.0722C7.09828 14.0764 7.21479 14.1153 7.3134 14.1843C7.41201 14.2533 7.48848 14.3495 7.53354 14.4611C7.62799 14.7889 7.30576 15.1833 6.83354 15.3167C6.5969 15.3917 6.34149 15.3819 6.11132 15.2889C6.03415 15.2606 5.96422 15.2155 5.90658 15.1569C5.84894 15.0983 5.80502 15.0276 5.77799 14.95C5.77799 14.95 5.77799 14.9 5.77799 14.8778L4.90021 14.9667C4.9034 15.0435 4.91457 15.1199 4.93354 15.1944C4.99482 15.3991 5.10089 15.5875 5.24407 15.7461C5.38725 15.9047 5.56395 16.0293 5.76132 16.1111C5.9922 16.2056 6.23966 16.2528 6.4891 16.25C6.67697 16.2496 6.86389 16.2234 7.04465 16.1722C7.26053 16.1316 7.46624 16.0487 7.64996 15.9282C7.83368 15.8078 7.99179 15.6523 8.11518 15.4705C8.23858 15.2888 8.32483 15.0845 8.36898 14.8693C8.41313 14.6541 8.4143 14.4323 8.37243 14.2167ZM5.9891 10.65C5.92607 10.4437 5.81745 10.2542 5.67128 10.0955C5.5251 9.93681 5.34512 9.81304 5.14465 9.73332C5.05493 9.69538 4.96196 9.66563 4.86688 9.64443L4.66132 10.5111C4.70909 10.5208 4.75566 10.5357 4.80021 10.5555C4.87681 10.5833 4.94638 10.6275 5.00398 10.6851C5.06159 10.7427 5.10582 10.8123 5.13354 10.8889C5.22799 11.2222 4.90576 11.6167 4.43354 11.75C3.96132 11.8833 3.48354 11.7167 3.3891 11.3833C3.37251 11.3121 3.37251 11.2379 3.3891 11.1667L2.52243 10.9778C2.46974 11.1893 2.46974 11.4106 2.52243 11.6222C2.63398 11.949 2.85003 12.23 3.1372 12.4218C3.42438 12.6136 3.76671 12.7055 4.11132 12.6833C4.29905 12.681 4.48572 12.6548 4.66688 12.6055C4.88225 12.5643 5.08737 12.4809 5.27046 12.3602C5.45356 12.2395 5.61104 12.0839 5.73387 11.9022C5.8567 11.7205 5.94247 11.5164 5.98627 11.3015C6.03007 11.0866 6.03103 10.8652 5.9891 10.65ZM7.47243 6.33332C7.4094 6.127 7.30078 5.93749 7.15461 5.77882C7.00844 5.62014 6.82846 5.49637 6.62799 5.41666C6.59202 5.40226 6.55483 5.3911 6.51688 5.38332L6.22799 6.22221C6.24642 6.21976 6.2651 6.21976 6.28354 6.22221C6.36014 6.24993 6.42971 6.29417 6.48732 6.35177C6.54492 6.40937 6.58915 6.47894 6.61688 6.55554C6.71132 6.88888 6.3891 7.28332 5.91688 7.41666C5.68291 7.4832 5.43383 7.47347 5.20576 7.38888C5.12859 7.36057 5.05866 7.31549 5.00102 7.25688C4.94338 7.19828 4.89946 7.12762 4.87243 7.04999C4.86118 6.99126 4.86118 6.93094 4.87243 6.87221L3.99465 6.76666C3.96962 6.94117 3.98097 7.11897 4.02799 7.28888C4.08654 7.49769 4.19207 7.69034 4.3365 7.85211C4.48094 8.01388 4.66045 8.14047 4.86132 8.22221C5.09185 8.31843 5.3393 8.36754 5.5891 8.36666C5.77683 8.3643 5.9635 8.33817 6.14465 8.28888C6.36053 8.24824 6.56624 8.16532 6.74996 8.04491C6.93368 7.92449 7.09179 7.76894 7.21518 7.5872C7.33858 7.40546 7.42483 7.20113 7.46898 6.98594C7.51312 6.77075 7.5143 6.54896 7.47243 6.33332ZM11.6669 3.76666C11.6049 3.55978 11.4967 3.36972 11.3504 3.2109C11.2041 3.05207 11.0235 2.92865 10.8224 2.84999L10.6558 2.79443L10.3891 3.64443H10.4724C10.5496 3.67274 10.6195 3.71782 10.6772 3.77643C10.7348 3.83503 10.7787 3.90569 10.8058 3.98332C10.9002 4.31666 10.578 4.70554 10.1058 4.83888C9.63354 4.97221 9.15576 4.80554 9.06132 4.47777C9.03637 4.36964 9.04809 4.25628 9.09465 4.15554L8.27243 3.83332C8.14809 4.11886 8.12458 4.43821 8.20576 4.73888C8.31761 5.06325 8.53214 5.34232 8.81686 5.5338C9.10157 5.72528 9.44094 5.81873 9.78354 5.79999C9.97174 5.79864 10.1588 5.77058 10.3391 5.71666C10.5544 5.67598 10.7596 5.59325 10.9429 5.47319C11.1262 5.35314 11.284 5.19811 11.4074 5.01699C11.5307 4.83588 11.6171 4.63221 11.6616 4.41767C11.7061 4.20312 11.7079 3.9819 11.6669 3.76666Z" fill="#7BCEAD"/>
</svg>
