<svg width="12" height="15" viewBox="0 0 12 15" fill="none" xmlns="http://www.w3.org/2000/svg">
<path d="M10.6986 1.95576C9.04278 0.299902 6.3463 0.299902 4.6922 1.95576L0.104313 6.54014C0.0744304 6.57002 0.05861 6.61045 0.05861 6.65264C0.05861 6.69482 0.0744304 6.73525 0.104313 6.76514L0.752945 7.41377C0.782594 7.44329 0.822728 7.45986 0.864566 7.45986C0.906404 7.45986 0.946538 7.44329 0.976187 7.41377L5.56407 2.82939C6.1336 2.25986 6.89122 1.94697 7.6963 1.94697C8.50137 1.94697 9.25899 2.25986 9.82676 2.82939C10.3963 3.39893 10.7092 4.15654 10.7092 4.95986C10.7092 5.76494 10.3963 6.5208 9.82676 7.09033L5.15099 11.7644L4.39337 12.522C3.68497 13.2304 2.53361 13.2304 1.82521 12.522C1.48244 12.1792 1.29435 11.7239 1.29435 11.2388C1.29435 10.7536 1.48244 10.2983 1.82521 9.95557L6.46407 5.31846C6.58184 5.20244 6.73653 5.1374 6.90176 5.1374H6.90352C7.06876 5.1374 7.22169 5.20244 7.3377 5.31846C7.45547 5.43623 7.51876 5.59092 7.51876 5.75615C7.51876 5.91963 7.45372 6.07432 7.3377 6.19033L3.54611 9.97842C3.51622 10.0083 3.5004 10.0487 3.5004 10.0909C3.5004 10.1331 3.51622 10.1735 3.54611 10.2034L4.19474 10.8521C4.22439 10.8816 4.26452 10.8981 4.30636 10.8981C4.3482 10.8981 4.38833 10.8816 4.41798 10.8521L8.20782 7.06221C8.55762 6.7124 8.74922 6.24834 8.74922 5.75439C8.74922 5.26045 8.55586 4.79463 8.20782 4.44658C7.48536 3.72412 6.31114 3.72588 5.58868 4.44658L5.13868 4.89834L0.951578 9.08369C0.667394 9.36621 0.442127 9.70233 0.28884 10.0726C0.135553 10.4428 0.0572971 10.8398 0.05861 11.2405C0.05861 12.0544 0.376774 12.819 0.951578 13.3938C1.54748 13.988 2.32794 14.2851 3.10841 14.2851C3.88888 14.2851 4.66935 13.988 5.26349 13.3938L10.6986 7.96221C11.4984 7.16064 11.9414 6.09365 11.9414 4.95986C11.9432 3.82432 11.5002 2.75732 10.6986 1.95576Z" fill="#C4C4C4"/>
</svg>
