<svg width="16" height="16" viewBox="0 0 16 16" fill="none" xmlns="http://www.w3.org/2000/svg">
<path d="M8.00016 14.6666C10.5728 14.6666 12.6668 12.5726 12.6668 9.99992C12.6668 7.42725 10.5728 5.33325 8.00016 5.33325C5.42683 5.33325 3.3335 7.42725 3.3335 9.99992C3.3335 12.5726 5.42683 14.6666 8.00016 14.6666ZM8.00016 6.66659C9.83816 6.66659 11.3335 8.16192 11.3335 9.99992C11.3335 11.8379 9.83816 13.3333 8.00016 13.3333C6.16216 13.3333 4.66683 11.8379 4.66683 9.99992C4.66683 8.16192 6.16216 6.66659 8.00016 6.66659ZM7.3335 1.33325H4.66683V5.01192C5.46462 4.47807 6.37935 4.14442 7.3335 4.03925V1.33325ZM11.3335 1.33325H8.66683V4.03925C9.62098 4.14442 10.5357 4.47807 11.3335 5.01192V1.33325Z" fill="#7ACDAC"/>
<path d="M6.67924 10.5406L6.36724 12.3579L7.99991 11.4999L9.63258 12.3579L9.32058 10.5406L10.6419 9.25259L8.81658 8.98725L7.99991 7.33325L7.18324 8.98725L5.35791 9.25259L6.67924 10.5406Z" fill="#7ACDAC"/>
</svg>
