<svg width="23" height="23" viewBox="0 0 23 23" fill="none" xmlns="http://www.w3.org/2000/svg">
<defs>
<linearGradient id="paint0_linear_842_31820" x1="15.8125" y1="2.875" x2="15.8125" y2="20.125" gradientUnits="userSpaceOnUse">
<stop stop-color="#4DBA8D"/>
<stop offset="1" stop-color="#79CDAA"/>
</linearGradient>
<linearGradient id="paint1_linear_842_31820" x1="4.98525" y1="12.9368" x2="4.98525" y2="20.1249" gradientUnits="userSpaceOnUse">
<stop stop-color="#4DBA8D"/>
<stop offset="1" stop-color="#79CDAA"/>
</linearGradient>
<linearGradient id="paint2_linear_842_31820" x1="6.46875" y1="4.3125" x2="6.46875" y2="11.5" gradientUnits="userSpaceOnUse">
<stop stop-color="#4DBA8D"/>
<stop offset="1" stop-color="#79CDAA"/>
</linearGradient>
</defs>
<path d="M10.0625 20.125C10.0625 20.125 8.625 20.125 8.625 18.6875C8.625 17.25 10.0625 12.9375 15.8125 12.9375C21.5625 12.9375 23 17.25 23 18.6875C23 20.125 21.5625 20.125 21.5625 20.125H10.0625ZM15.8125 11.5C16.9562 11.5 18.0531 11.0456 18.8619 10.2369C19.6706 9.42815 20.125 8.33125 20.125 7.1875C20.125 6.04375 19.6706 4.94685 18.8619 4.1381C18.0531 3.32935 16.9562 2.875 15.8125 2.875C14.6688 2.875 13.5719 3.32935 12.7631 4.1381C11.9544 4.94685 11.5 6.04375 11.5 7.1875C11.5 8.33125 11.9544 9.42815 12.7631 10.2369C13.5719 11.0456 14.6688 11.5 15.8125 11.5Z" fill="url(#paint0_linear_842_31820)"/>
<path fill-rule="evenodd" clip-rule="evenodd" d="M7.498 20.1249C7.2849 19.6761 7.17862 19.1841 7.1875 18.6874C7.1875 16.7396 8.165 14.7343 9.9705 13.3399C9.06932 13.0622 8.13043 12.9264 7.1875 12.9374C1.4375 12.9374 0 17.2499 0 18.6874C0 20.1249 1.4375 20.1249 1.4375 20.1249H7.498Z" fill="url(#paint1_linear_842_31820)"/>
<path d="M6.46875 11.5C7.42187 11.5 8.33596 11.1214 9.00991 10.4474C9.68387 9.77346 10.0625 8.85937 10.0625 7.90625C10.0625 6.95313 9.68387 6.03904 9.00991 5.36509C8.33596 4.69113 7.42187 4.3125 6.46875 4.3125C5.51563 4.3125 4.60154 4.69113 3.92759 5.36509C3.25363 6.03904 2.875 6.95313 2.875 7.90625C2.875 8.85937 3.25363 9.77346 3.92759 10.4474C4.60154 11.1214 5.51563 11.5 6.46875 11.5Z" fill="url(#paint2_linear_842_31820)"/>
</svg>
