<svg width="21" height="21" fill="none" xmlns="http://www.w3.org/2000/svg">
  <path d="M5.292 1.125H3.208a2.083 2.083 0 0 0-2.083 2.083v2.084M15.708 1.125h2.084a2.083 2.083 0 0 1 2.083 2.083v2.084M14.667 6.333v2.083M6.333 6.333v2.083M7.375 14.667s1.042 1.042 3.125 1.042 3.125-1.042 3.125-1.042M10.5 6.333v5.208H9.458M5.292 19.875H3.208a2.083 2.083 0 0 1-2.083-2.084v-2.083M15.708 19.875h2.084a2.083 2.083 0 0 0 2.083-2.084v-2.083" stroke="#fff" stroke-width="1.5" stroke-linecap="round" stroke-linejoin="round"/>
</svg>
