<svg width="21" height="20" viewBox="0 0 21 20" fill="none" xmlns="http://www.w3.org/2000/svg">
<path d="M8.00369 6.08696C7.84959 6.36254 7.51859 6.73376 7.51859 6.73376C7.51859 6.73376 7.26627 6.92143 7.07969 6.98786C6.84037 7.07306 6.43289 7.05716 6.43289 7.05716H5.06999L2.5059 7.12646C2.5059 7.12646 1.94833 7.15049 1.6281 7.28816C1.4348 7.37126 1.20199 7.4104 1.0968 7.63466C1.03503 7.76635 1.04048 7.74046 1.0044 7.91186C0.968315 8.08326 1.1661 8.39696 1.1661 8.39696C1.1661 8.39696 1.36895 8.76496 1.5357 8.97446C1.8709 9.39559 2.5983 9.85226 2.5983 9.85226L4.49249 11.2152C4.49249 11.2152 5.13197 11.5742 5.41649 11.9313C5.56788 12.1212 5.66376 12.2319 5.73989 12.4626C5.79428 12.6273 5.8067 12.7279 5.80919 12.9015C5.8133 13.1881 5.64749 13.6176 5.64749 13.6176L5.30099 14.7726L4.60799 17.1287C4.60799 17.1287 4.44191 17.7455 4.46939 18.1451C4.4813 18.3183 4.47479 18.4227 4.53869 18.584C4.58941 18.7121 4.72349 18.8843 4.72349 18.8843C4.72349 18.8843 4.98523 19.0049 5.16239 18.9998C5.32218 18.9953 5.55509 18.8843 5.55509 18.8843C5.55509 18.8843 5.99132 18.7292 6.24809 18.584C6.57322 18.4003 7.01039 18.0065 7.01039 18.0065L8.21159 17.1287L9.78238 16.0661L10.3599 15.7889C10.3599 15.7889 10.5589 15.7668 10.6833 15.7889C10.8268 15.8145 10.9 15.8613 11.0298 15.9275C11.2259 16.0277 11.4918 16.2509 11.4918 16.2509L12.0924 16.6436L13.1319 17.3828L14.4948 18.353C14.4948 18.353 15.0099 18.7261 15.3957 18.7919C15.6269 18.8314 15.7813 18.8856 15.9963 18.7919C16.1203 18.7379 16.2735 18.584 16.2735 18.584C16.2735 18.584 16.4337 18.2995 16.4814 18.0989C16.5461 17.8269 16.4814 17.3828 16.4814 17.3828L16.2735 16.4819L15.8115 15.0035L15.2109 13.0632C15.2109 13.0632 15.0966 12.6989 15.1185 12.4626C15.1322 12.3144 15.1517 12.2295 15.2109 12.093C15.2805 11.9322 15.3506 11.856 15.465 11.7234C15.6408 11.5196 15.9963 11.2845 15.9963 11.2845L16.9203 10.5684L18.237 9.62126L19.2303 8.76656C19.2303 8.76656 19.5732 8.47109 19.6692 8.21216C19.7326 8.04109 19.7385 7.75016 19.7385 7.75016C19.7385 7.75016 19.6687 7.48191 19.5537 7.35746C19.4001 7.19134 19.0224 7.12646 19.0224 7.12646C19.0224 7.12646 18.5597 7.04068 18.2601 7.01096C17.6855 6.95397 16.7817 7.01096 16.7817 7.01096C16.7817 7.01096 15.094 7.17266 14.0328 7.01096C13.7512 6.96806 13.386 6.91856 13.3167 6.87236C13.2474 6.82616 13.0395 6.64136 13.0395 6.64136C13.0395 6.64136 12.847 6.24096 12.7854 6.08696L12.3465 4.97816L11.8383 3.43047C11.8383 3.43047 11.5796 2.43361 11.2377 1.88277C11.0645 1.60378 10.9956 1.40518 10.7295 1.21287C10.5823 1.10655 10.4943 1.02375 10.3137 1.00497C10.1676 0.98978 10.0754 1.00845 9.94408 1.07427C9.77862 1.15724 9.7343 1.27465 9.62068 1.42077C9.44211 1.65043 9.25109 2.06757 9.25109 2.06757L8.88149 3.01467L8.62739 4.12347L8.35019 5.09366C8.35019 5.09366 8.2042 5.72839 8.00369 6.08696Z" fill="#7ACDAC" stroke="#7ACDAC"/>
</svg>
