<svg width="12" height="13" viewBox="0 0 12 13" fill="none" xmlns="http://www.w3.org/2000/svg">
<defs>
<linearGradient id="paint0_linear_209_37217" x1="-15.4024" y1="42.4007" x2="34.0894" y2="14.5739" gradientUnits="userSpaceOnUse">
<stop stop-color="#7ACDAC"/>
<stop offset="1" stop-color="#79CCB9"/>
</linearGradient>
</defs>
<path d="M5.80828 0.117188C2.60552 0.117188 0 2.64039 0 5.74219C0 7.05249 0.472452 8.32214 1.33228 9.32849C1.50245 10.0986 1.29591 10.9145 0.783411 11.477C0.56912 11.7123 0.720659 12.1172 1.02499 12.1172C1.99859 12.1172 2.93717 11.6986 3.6345 10.9603C4.3245 11.2306 5.05454 11.3672 5.80828 11.3672C9.01103 11.3672 11.6621 8.84399 11.6621 5.74219C11.6621 2.64039 9.01103 0.117188 5.80828 0.117188ZM3.12052 6.86719C2.55532 6.86719 2.09553 6.36254 2.09553 5.74219C2.09553 5.12184 2.55532 4.61719 3.12052 4.61719C3.68573 4.61719 4.14551 5.12184 4.14551 5.74219C4.14551 6.36254 3.68573 6.86719 3.12052 6.86719ZM5.85383 6.86719C5.28863 6.86719 4.82884 6.36254 4.82884 5.74219C4.82884 5.12184 5.28863 4.61719 5.85383 4.61719C6.41903 4.61719 6.87882 5.12184 6.87882 5.74219C6.87882 6.36254 6.41903 6.86719 5.85383 6.86719ZM8.58714 6.86719C8.02194 6.86719 7.56215 6.36254 7.56215 5.74219C7.56215 5.12184 8.02194 4.61719 8.58714 4.61719C9.15234 4.61719 9.61213 5.12184 9.61213 5.74219C9.61213 6.36254 9.15234 6.86719 8.58714 6.86719Z" fill="white"/>
<path d="M5.80828 0.117188C2.60552 0.117188 0 2.64039 0 5.74219C0 7.05249 0.472452 8.32214 1.33228 9.32849C1.50245 10.0986 1.29591 10.9145 0.783411 11.477C0.56912 11.7123 0.720659 12.1172 1.02499 12.1172C1.99859 12.1172 2.93717 11.6986 3.6345 10.9603C4.3245 11.2306 5.05454 11.3672 5.80828 11.3672C9.01103 11.3672 11.6621 8.84399 11.6621 5.74219C11.6621 2.64039 9.01103 0.117188 5.80828 0.117188ZM3.12052 6.86719C2.55532 6.86719 2.09553 6.36254 2.09553 5.74219C2.09553 5.12184 2.55532 4.61719 3.12052 4.61719C3.68573 4.61719 4.14551 5.12184 4.14551 5.74219C4.14551 6.36254 3.68573 6.86719 3.12052 6.86719ZM5.85383 6.86719C5.28863 6.86719 4.82884 6.36254 4.82884 5.74219C4.82884 5.12184 5.28863 4.61719 5.85383 4.61719C6.41903 4.61719 6.87882 5.12184 6.87882 5.74219C6.87882 6.36254 6.41903 6.86719 5.85383 6.86719ZM8.58714 6.86719C8.02194 6.86719 7.56215 6.36254 7.56215 5.74219C7.56215 5.12184 8.02194 4.61719 8.58714 4.61719C9.15234 4.61719 9.61213 5.12184 9.61213 5.74219C9.61213 6.36254 9.15234 6.86719 8.58714 6.86719Z" fill="url(#paint0_linear_209_37217)"/>
</svg>
