<svg width="25" height="18" viewBox="0 0 25 18" fill="none" xmlns="http://www.w3.org/2000/svg">
<path d="M12.4999 0.808594L12.1335 1.00391L1.58662 6.47266L0.243652 7.15625L1.5624 7.81562V14.407C1.09521 14.6789 0.781152 15.1727 0.781152 15.75C0.781152 16.1644 0.945772 16.5618 1.2388 16.8549C1.53182 17.1479 1.92925 17.3125 2.34365 17.3125C2.75805 17.3125 3.15548 17.1479 3.44851 16.8549C3.74153 16.5618 3.90615 16.1644 3.90615 15.75C3.90615 15.1734 3.59209 14.6789 3.1249 14.407V8.62109L4.6874 9.42656V13.4062C4.6874 13.7508 4.846 14.0625 5.02959 14.2609C5.2124 14.4594 5.43506 14.5781 5.66397 14.7C6.1249 14.9414 6.67178 15.1125 7.34834 15.2617C8.70381 15.5641 10.5101 15.75 12.4999 15.75C14.4897 15.75 16.2968 15.5641 17.6515 15.2617C18.3288 15.1125 18.8749 14.9414 19.3358 14.7C19.5647 14.5781 19.7874 14.4594 19.971 14.2609C20.1855 14.0274 20.3069 13.7233 20.3124 13.4062V9.42656L23.4132 7.83984L24.7554 7.15625L23.4132 6.47266L12.8663 1.00391L12.4999 0.808594ZM12.4999 2.56641L21.3382 7.15625L19.946 7.86406C19.7679 7.68546 19.5618 7.53716 19.3358 7.425C18.878 7.18359 18.328 7.0125 17.6515 6.86328C16.2999 6.56094 14.4991 6.375 12.4999 6.375C10.5007 6.375 8.70068 6.56094 7.34834 6.86328C6.671 7.0125 6.12178 7.18359 5.66397 7.425C5.43803 7.53716 5.23193 7.68546 5.05381 7.86406L3.66162 7.15625L12.4999 2.56641ZM12.4999 7.9375C14.4069 7.9375 16.1226 8.11172 17.3093 8.37734C17.9015 8.50781 18.3772 8.66094 18.628 8.79141C18.7069 8.83438 18.7194 8.86562 18.7499 8.88984V11.868C18.3912 11.7379 18.0243 11.6319 17.6515 11.5508C16.296 11.2484 14.4897 11.0625 12.4999 11.0625C10.5101 11.0625 8.70303 11.2484 7.34834 11.5508C6.9335 11.6422 6.57647 11.7492 6.2499 11.868V8.89062C6.28115 8.86641 6.29287 8.83594 6.37178 8.79297C6.62178 8.66172 7.09834 8.50859 7.69053 8.37813C8.87803 8.11172 10.5929 7.9375 12.4999 7.9375ZM12.4999 12.625C14.3952 12.625 16.1194 12.7992 17.3093 13.0648C17.6779 13.1422 18.0378 13.2566 18.3835 13.4062C18.0378 13.5561 17.6779 13.6708 17.3093 13.7484C16.1194 14.0141 14.3952 14.1875 12.4999 14.1875C10.6046 14.1875 8.88037 14.0133 7.69053 13.7477C7.32189 13.6703 6.96199 13.5559 6.61631 13.4062C6.96196 13.2564 7.32186 13.1417 7.69053 13.0641C8.88037 12.7992 10.6046 12.625 12.4999 12.625Z" fill="#7BCEAD"/>
</svg>
