<svg xmlns="http://www.w3.org/2000/svg" viewBox="0 0 115.19 123.38" enable-background="new 0 0 115.19 123.38"><path d="m93.13 79.5c12.05 0 21.82 9.77 21.82 21.82 0 12.05-9.77 21.82-21.82 21.82-12.05 0-21.82-9.77-21.82-21.82 0-12.05 9.77-21.82 21.82-21.82m-85.05-79.25h95.28c2.17 0 4.11.89 5.53 2.3 1.42 1.42 2.3 3.39 2.3 5.53v70.01c-2.46-1.91-5.24-3.44-8.25-4.48v-63.63c0-.43-.16-.79-.46-1.05-.26-.26-.66-.46-1.05-.46h-91.49c-.43 0-.79.16-1.05.46-.26.26-.46.65-.46 1.05v70.02h.03l31.97-30.61c1.28-1.18 3.29-1.05 4.44.23.03.03.03.07.07.07l26.88 31.8c-4.73 5.18-7.62 12.08-7.62 19.65 0 3.29.55 6.45 1.55 9.4h-57.67c-2.17 0-4.11-.89-5.53-2.3s-2.3-3.39-2.3-5.53v-94.63c0-2.17.89-4.11 2.3-5.53s3.39-2.3 5.53-2.3m65.9 79.1l3.71-22.79c.3-1.71 1.91-2.9 3.62-2.6.66.1 1.25.43 1.71.86l17.1 17.97c-2.18-.52-4.44-.79-6.78-.79-7.43-.01-14.21 2.77-19.36 7.35m8-61.16c3.13 0 5.99 1.28 8.03 3.32 2.07 2.07 3.32 4.9 3.32 8.03 0 3.13-1.28 5.99-3.32 8.03-2.07 2.07-4.9 3.32-8.03 3.32-3.13 0-5.99-1.28-8.03-3.32-2.07-2.07-3.32-4.9-3.32-8.03 0-3.13 1.28-5.99 3.32-8.03 2.07-2.07 4.91-3.32 8.03-3.32m3.84 69.86l19.96 21.6c1.58-2.39 2.5-5.25 2.5-8.33 0-8.36-6.78-15.14-15.14-15.14-2.66-.01-5.15.67-7.32 1.87m14.62 26.53l-19.96-21.6c-1.58 2.39-2.5 5.25-2.5 8.33 0 8.36 6.78 15.14 15.14 15.14 2.66.01 5.15-.67 7.32-1.87"/></svg>