<svg width="7" height="8" viewBox="0 0 7 8" fill="none" xmlns="http://www.w3.org/2000/svg">
<path d="M3.6 2.82C3.51667 2.82 3.44333 2.79 3.38 2.73C3.32 2.67 3.29 2.59667 3.29 2.51C3.29 2.42333 3.32 2.35 3.38 2.29C3.44333 2.23 3.51667 2.2 3.6 2.2C3.68667 2.2 3.76 2.23 3.82 2.29C3.88 2.35 3.91 2.42333 3.91 2.51C3.91 2.59667 3.88 2.67 3.82 2.73C3.76 2.79 3.68667 2.82 3.6 2.82ZM3.375 5.75V3.19H3.82V5.75H3.375Z" fill="#696969"/>
<circle cx="3.5" cy="4.25" r="3.25" stroke="#696969" stroke-width="0.5"/>
</svg>
