<svg fill="none" height="23" viewBox="0 0 21 23" width="21" xmlns="http://www.w3.org/2000/svg"><g fill="#ffcb00"><path d="m20.037 2.8094c-.0747-.07471-.1743-.12451-.2739-.12451h-3.7848v-1.743025c0-.199203-.1743-.373506-.3735-.373506h-10.63251c-.1992 0-.3735.174303-.3735.373506v1.743025h-3.884464c-.099601 0-.199203.0498-.273904.12451-.074701.0747-.099602.1743-.099602.2739 0 .0747.074702 1.66833.647411 3.51096.796809 2.46514 2.141429 4.20814 3.934259 5.00494.59761 1.9921 1.96713 3.5608 3.68526 4.1833v.0747c0 2.0667-1.56872 3.7102-3.58566 3.7102-.1992 0-.3735.1743-.3735.3735v2.1165c0 .1992.1743.3735.3735.3735h10.58271c.1992 0 .3735-.1743.3735-.3735v-2.1165c0-.1992-.1743-.3735-.3735-.3735-2.0419 0-3.7102-1.6684-3.7102-3.7102v-.0498c1.7928-.6225 3.1873-2.2161 3.7849-4.258 1.7181-.8217 3.0378-2.5398 3.8097-4.95514.5976-1.84263.6474-3.46116.6474-3.51096.0249-.0996-.0249-.1992-.0996-.2739zm-18.92427.62251h3.48606v5.97609c0 .42331.0249.8217.0996 1.2201-2.83865-1.6932-3.46116-5.90137-3.58566-7.19619zm14.11857 16.85759v1.3695h-9.8357v-1.3695c2.19124-.1743 3.88446-1.9921 3.93426-4.3078.29881.0498.62251.0996.94624.0996.2988 0 .5976-.0249.8715-.0747.0996 2.2659 1.8675 4.1086 4.0837 4.2829zm-3.9592-5.0548c-.3237.0747-.6474.1245-.9711.1245-.37353 0-.74703-.0498-1.09564-.1494-.0747-.0249-.1992-.0747-.249-.0747-2.06674-.6972-3.61056-2.9881-3.61056-5.7022v-8.09263h9.8855v1.49403.4731 6.1255c0 2.7141-1.5439 5.005-3.6355 5.7022zm4.6315-4.6564c.0498-.3735.0996-.77189.0996-1.1703v-5.97609h3.3864c-.1245 1.29482-.7221 5.37848-3.486 7.14639z"/><path d="m13.8865 5.79717-2.0418-.29881-.9213-1.86753c-.0996-.1992-.3237-.3486-.5478-.3486s-.44822.1245-.54782.3486l-.92132 1.86753-2.04183.29881c-.2241.0249-.42331.1992-.49801.4233-.0747.22411-.0249.47311.14941.62251l1.49402 1.44423-.34861 2.04179c-.0498.2241.0498.4482.24901.5976.0996.0747.2241.1246.3735.1246.09961 0 .19921-.025.27391-.0748l1.89244-.9462 1.7928.9462c.1992.0997.4482.0997.6474-.0498.1992-.1494.2739-.3735.249-.5976l-.3486-2.04179 1.4941-1.44423c.1743-.1743.2241-.3984.1494-.62251-.1245-.2241-.2989-.3984-.5479-.4233zm-1.7928 2.09163c-.0996.0747-.1245.1992-.0996.32371l.3486 1.96709-1.7181-.89638c-.0996-.0498-.2241-.0498-.3486 0l-1.84264.92128.3486-1.99199c.0249-.12451-.0249-.24901-.0996-.32371l-1.41932-1.39442 1.96713-.29881c.1245-.0249.2241-.0996.2739-.1992l.87153-1.79283.8715 1.79283c.0498.0996.1494.1992.2739.1992l1.9671.29881z"/></g></svg>