<svg viewBox="0 0 38 26" fill="none" xmlns="http://www.w3.org/2000/svg"><defs><mask id="0" fill="#fff"><path d="m22.449 19.502c.038.112.162.169.27.123 1.247-.534 2.324-1.444 3.098-2.622.816-1.24 1.257-2.718 1.266-4.236.008-1.518-.417-3-1.219-4.256-.762-1.19-1.828-2.117-3.069-2.671-.108-.048-.232.008-.272.119-.037.104.014.219.116.264 1.174.523 2.183 1.399 2.903 2.524.757 1.183 1.159 2.584 1.151 4.02-.008 1.432-.425 2.827-1.195 3.998-.732 1.113-1.75 1.973-2.929 2.477-.102.044-.156.158-.12.263"/></mask><mask id="1" fill="#fff"><path d="m25.996 23.318c.054.184.259.278.429.191 1.627-.831 3.03-2.23 4.04-4.04 1.079-1.926 1.66-4.223 1.667-6.582.007-2.36-.561-4.67-1.629-6.62-1-1.829-2.396-3.261-4.02-4.129-.169-.091-.376.001-.432.185-.044.148.025.305.162.377 1.56.816 2.901 2.181 3.86 3.934 1.01 1.841 1.544 4.02 1.537 6.249-.006 2.227-.555 4.395-1.574 6.213-.968 1.728-2.315 3.061-3.877 3.842-.14.07-.214.229-.169.38"/></mask></defs><path d="m8.296 6.928v12.16m0-12.16h-2.296c-2.761 0-5 2.239-5 5v2.16c0 2.761 2.239 5 5 5h2.296m0-12.16c0 0 .764-1.114 1.327-1.769.637-.741 1.012-1.151 1.769-1.769.724-.59 1.99-1.327 1.99-1.327 0 0 1.436-.795 2.432-1.105.841-.262 1.333-.378 2.211-.442.517-.038 1.327 0 1.327 0v24.983h-1.327c0 0-1.37-.18-2.211-.442-.996-.311-2.432-1.105-2.432-1.105 0 0-1.266-.736-1.99-1.327-.757-.618-1.132-1.028-1.769-1.769-.563-.655-1.327-1.769-1.327-1.769" stroke="#696969"/><g fill="#696969"><path d="m29.542 9.02c.704 1.1 1.079 2.407 1.072 3.745l1 .005c.008-1.527-.419-3.02-1.229-4.289l-.842.539m-6.974 10.222l-.393-.92.393.92m.226-13.399l-.408.913.408-.913m-.156.383l.407-.914-.407.914m.08 13.402l-.394-.919.394.919m.394.919c1.434-.614 2.662-1.656 3.54-2.992l-1.671-1.099c-.671 1.02-1.596 1.798-2.657 2.252l.787 1.838m3.54-2.992c.925-1.406 1.421-3.073 1.43-4.78l-2-.011c-.007 1.329-.394 2.617-1.101 3.692l1.671 1.099m1.43-4.78c.009-1.707-.468-3.381-1.377-4.8l-1.685 1.078c.696 1.087 1.069 2.382 1.061 3.711l2 .011m-1.377-4.8c-.863-1.348-2.078-2.409-3.504-3.045l-.815 1.826c1.056.471 1.974 1.265 2.635 2.297l1.685-1.078m-4.474-.836c.989.44 1.849 1.183 2.468 2.15l1.685-1.078c-.822-1.284-1.979-2.294-3.339-2.899l-.813 1.827m2.468 2.15c.651 1.017 1 2.229.993 3.472l2 .011c.009-1.621-.445-3.213-1.308-4.561l-1.685 1.078m.993 3.472c-.007 1.244-.369 2.449-1.03 3.454l1.671 1.099c.879-1.336 1.35-2.921 1.359-4.542l-2-.011m-1.03 3.454c-.628.955-1.495 1.683-2.487 2.107l.786 1.839c1.367-.584 2.536-1.576 3.372-2.847l-1.671-1.099m-2.487 2.107c-.565.242-.885.887-.673 1.507l1.892-.648c.14.409-.073.826-.434.98l-.786-1.839m1.027-13.392c-.66-.295-1.394.057-1.622.697l1.884.67c-.148.418-.634.658-1.078.459l.815-1.826m-1.622.697c-.219.615.091 1.263.651 1.512l.813-1.827c.358.159.565.578.42.985l-1.884-.67m.745 13.08c.446-.191.926.054 1.07.473l-1.892.648c.22.641.947 1 1.61.718l-.787-1.838" mask="url(#0)"/><path d="m35.505 6.887c.965 1.763 1.482 3.859 1.476 6.01l1 .003c.007-2.306-.548-4.57-1.599-6.49l-.877.48m-5.427-.252l-.877.48.877-.48m-.036 12.462l-.873-.489.873.489m-3.877 3.842l-.447-.895.447.895m.322-20.798l.472-.882-.472.882m-.27.561l.463-.886-.463.886m.207 20.808l-.455-.89.455.89m.455.89c1.824-.932 3.363-2.483 4.459-4.438l-1.745-.977c-.928 1.657-2.195 2.905-3.624 3.635l.91 1.781m4.459-4.438c1.168-2.085 1.787-4.551 1.795-7.07l-2-.006c-.006 2.202-.55 4.329-1.54 6.097l1.745.977m1.795-7.07c.007-2.518-.598-4.995-1.751-7.103l-1.755.96c.981 1.794 1.512 3.936 1.506 6.137l2 .006m-1.751-7.103c-1.082-1.977-2.608-3.559-4.422-4.531l-.944 1.763c1.429.765 2.692 2.046 3.612 3.728l1.755-.96m-5.628-2.202c1.362.713 2.57 1.925 3.446 3.528l1.755-.96c-1.041-1.902-2.517-3.421-4.274-4.34l-.927 1.772m3.446 3.528c.921 1.684 1.421 3.697 1.415 5.766l2 .006c.007-2.385-.567-4.733-1.66-6.732l-1.755.96m1.415 5.766c-.006 2.069-.517 4.068-1.446 5.727l1.745.977c1.107-1.977 1.694-4.314 1.701-6.699l-2-.006m-1.446 5.727c-.883 1.577-2.092 2.756-3.451 3.436l.894 1.789c1.764-.881 3.25-2.368 4.302-4.247l-1.745-.977m-3.451 3.436c-.554.277-.869.921-.682 1.556l1.919-.564c.098.334-.07.66-.343.796l-.894-1.789m1.241-20.785c-.754-.403-1.632.019-1.861.777l1.915.578c-.118.391-.583.63-.998.408l.944-1.763m-1.861.777c-.189.627.113 1.267.656 1.552l.927-1.772c.27.141.432.467.332.798l-1.915-.578m.872 20.583c.415-.212.871.031.985.418l-1.919.564c.222.755 1.087 1.186 1.844.799l-.91-1.781" mask="url(#1)"/></g></svg>