<svg width="40" height="40" viewBox="0 0 40 40" fill="none" xmlns="http://www.w3.org/2000/svg">
<g clip-path="url(#clip0_739_16603)">
<path d="M27.5 2.5C28.163 2.5 28.7989 2.76339 29.2678 3.23223C29.7366 3.70107 30 4.33696 30 5V35C30 35.663 29.7366 36.2989 29.2678 36.7678C28.7989 37.2366 28.163 37.5 27.5 37.5H12.5C11.837 37.5 11.2011 37.2366 10.7322 36.7678C10.2634 36.2989 10 35.663 10 35V5C10 4.33696 10.2634 3.70107 10.7322 3.23223C11.2011 2.76339 11.837 2.5 12.5 2.5H27.5ZM12.5 0C11.1739 0 9.90215 0.526784 8.96447 1.46447C8.02678 2.40215 7.5 3.67392 7.5 5V35C7.5 36.3261 8.02678 37.5979 8.96447 38.5355C9.90215 39.4732 11.1739 40 12.5 40H27.5C28.8261 40 30.0979 39.4732 31.0355 38.5355C31.9732 37.5979 32.5 36.3261 32.5 35V5C32.5 3.67392 31.9732 2.40215 31.0355 1.46447C30.0979 0.526784 28.8261 0 27.5 0L12.5 0Z" fill="#696969"/>
<path d="M20 35C20.663 35 21.2989 34.7366 21.7678 34.2678C22.2366 33.7989 22.5 33.163 22.5 32.5C22.5 31.837 22.2366 31.2011 21.7678 30.7322C21.2989 30.2634 20.663 30 20 30C19.337 30 18.7011 30.2634 18.2322 30.7322C17.7634 31.2011 17.5 31.837 17.5 32.5C17.5 33.163 17.7634 33.7989 18.2322 34.2678C18.7011 34.7366 19.337 35 20 35Z" fill="#696969"/>
</g>
<defs>
<clipPath id="clip0_739_16603">
<rect width="40" height="40" fill="white"/>
</clipPath>
</defs>
</svg>
