<svg width="15" height="17" viewBox="0 0 15 17" fill="none" xmlns="http://www.w3.org/2000/svg">
<path d="M6.96538 1.13846L1 3.59615V9.65385C1 12.9 7.65769 16 7.65769 16C7.65769 16 14.3154 12.9 14.3154 9.65385V3.59615L8.35 1.13846C8.13063 1.04706 7.89534 1 7.65769 1C7.42005 1 7.18475 1.04706 6.96538 1.13846V1.13846Z" stroke="#7BCEAD" stroke-width="0.5" stroke-linecap="round" stroke-linejoin="round"/>
<path d="M10.6 6.67676H4.71928C4.49624 6.67676 4.31543 6.85757 4.31543 7.0806V11.4268C4.31543 11.6498 4.49624 11.8306 4.71928 11.8306H10.6C10.8231 11.8306 11.0039 11.6498 11.0039 11.4268V7.0806C11.0039 6.85757 10.8231 6.67676 10.6 6.67676Z" stroke="#7BCEAD" stroke-width="0.5" stroke-linecap="round" stroke-linejoin="round"/>
<path d="M5.44629 6.67655V5.74962C5.44629 5.16309 5.67929 4.60057 6.09403 4.18583C6.50878 3.77109 7.07129 3.53809 7.65783 3.53809C8.24436 3.53809 8.80688 3.77109 9.22162 4.18583C9.63637 4.60057 9.86937 5.16309 9.86937 5.74962V6.67655" stroke="#7BCEAD" stroke-width="0.5" stroke-linecap="round" stroke-linejoin="round"/>
<path d="M7.6575 10.1119C8.13119 10.1119 8.51519 9.72787 8.51519 9.25418C8.51519 8.78049 8.13119 8.39648 7.6575 8.39648C7.18381 8.39648 6.7998 8.78049 6.7998 9.25418C6.7998 9.72787 7.18381 10.1119 7.6575 10.1119Z" stroke="#7BCEAD" stroke-width="0.5" stroke-linecap="round" stroke-linejoin="round"/>
</svg>
