<svg width="103" height="23" viewBox="0 0 103 23" fill="none" xmlns="http://www.w3.org/2000/svg">
<defs>
<linearGradient id="paint0_linear_209_35949" x1="-0.3353" y1="5.03315" x2="18.9787" y2="8.94585" gradientUnits="userSpaceOnUse">
<stop stop-color="#96DDE6"/>
<stop offset="1" stop-color="#67C385"/>
</linearGradient>
<linearGradient id="paint1_linear_209_35949" x1="14.6647" y1="5.03315" x2="33.9787" y2="8.94585" gradientUnits="userSpaceOnUse">
<stop stop-color="#96DDE6"/>
<stop offset="1" stop-color="#67C385"/>
</linearGradient>
<linearGradient id="paint2_linear_209_35949" x1="29.6647" y1="5.03315" x2="48.9787" y2="8.94585" gradientUnits="userSpaceOnUse">
<stop stop-color="#96DDE6"/>
<stop offset="1" stop-color="#67C385"/>
</linearGradient>
<linearGradient id="paint3_linear_209_35949" x1="44.6647" y1="5.03315" x2="63.9787" y2="8.94585" gradientUnits="userSpaceOnUse">
<stop stop-color="#96DDE6"/>
<stop offset="1" stop-color="#67C385"/>
</linearGradient>
<linearGradient id="paint4_linear_209_35949" x1="59.1437" y1="4.96743" x2="78.6701" y2="8.95286" gradientUnits="userSpaceOnUse">
<stop stop-color="#96DDE6"/>
<stop offset="1" stop-color="#67C385"/>
</linearGradient>
<clipPath id="clip0_209_35949">
<rect width="12" height="12" fill="white" transform="translate(0 5.23853)"/>
</clipPath>
<clipPath id="clip1_209_35949">
<rect width="12" height="12" fill="white" transform="translate(15 5.23853)"/>
</clipPath>
<clipPath id="clip2_209_35949">
<rect width="12" height="12" fill="white" transform="translate(30 5.23853)"/>
</clipPath>
<clipPath id="clip3_209_35949">
<rect width="12" height="12" fill="white" transform="translate(45 5.23853)"/>
</clipPath>
</defs>
<path d="M85.096 17.2383V14.4863H79.464V13.3503L85.176 6.10228H86.584V13.1903H88.328V14.4863H86.584V17.2383H85.096ZM81.096 13.1903H85.096V8.11828L81.096 13.1903ZM90.9729 17.4303C90.6849 17.4303 90.4342 17.3289 90.2209 17.1263C90.0182 16.9236 89.9169 16.6729 89.9169 16.3743C89.9169 16.0756 90.0182 15.8249 90.2209 15.6223C90.4342 15.4196 90.6849 15.3183 90.9729 15.3183C91.2609 15.3183 91.5062 15.4196 91.7089 15.6223C91.9222 15.8249 92.0289 16.0756 92.0289 16.3743C92.0289 16.6729 91.9222 16.9236 91.7089 17.1263C91.5062 17.3289 91.2609 17.4303 90.9729 17.4303ZM94.0683 17.2383V16.0383L98.5163 12.0383C98.9643 11.6329 99.3163 11.2809 99.5723 10.9823C99.8283 10.6729 100.01 10.3849 100.116 10.1183C100.223 9.84095 100.276 9.54761 100.276 9.23828C100.276 8.67295 100.068 8.19828 99.6523 7.81428C99.2469 7.41961 98.6923 7.22228 97.9883 7.22228C97.3163 7.22228 96.7669 7.39295 96.3403 7.73428C95.9243 8.07561 95.6629 8.51828 95.5563 9.06228H94.0523C94.1589 8.44361 94.3883 7.89428 94.7403 7.41428C95.0923 6.93428 95.5456 6.55561 96.1003 6.27828C96.6656 6.00095 97.3056 5.86228 98.0203 5.86228C98.7669 5.86228 99.4229 6.00628 99.9883 6.29428C100.554 6.58228 100.996 6.97695 101.316 7.47828C101.636 7.97961 101.796 8.56095 101.796 9.22228C101.796 9.68095 101.716 10.1076 101.556 10.5023C101.396 10.8863 101.146 11.2756 100.804 11.6703C100.474 12.0543 100.042 12.4809 99.5083 12.9503L96.2123 15.8943H101.94V17.2383H94.0683Z" fill="#79CCB9"/>
<g clip-path="url(#clip0_209_35949)">
<path d="M11.9538 10.0553C11.8758 9.81206 11.6617 9.63932 11.4084 9.61633L7.96766 9.30156L6.60714 6.09315C6.50683 5.85802 6.27834 5.70581 6.02448 5.70581C5.77063 5.70581 5.54219 5.85802 5.44185 6.0937L4.0813 9.30156L0.640054 9.61633C0.387206 9.63988 0.173651 9.81206 0.0951597 10.0553C0.0166685 10.2985 0.089157 10.5652 0.280429 10.7334L2.8812 13.0314L2.11429 16.4349C2.05817 16.6852 2.15458 16.9439 2.36068 17.094C2.47146 17.1746 2.60106 17.2157 2.73176 17.2157C2.84445 17.2157 2.95623 17.1851 3.05655 17.1246L6.02448 15.3374L8.99132 17.1246C9.20841 17.2562 9.48212 17.2442 9.68775 17.094C9.89394 16.9435 9.99026 16.6846 9.93414 16.4349L9.16723 13.0314L11.768 10.7338C11.9592 10.5652 12.0323 10.2989 11.9538 10.0553Z" fill="url(#paint0_linear_209_35949)"/>
</g>
<g clip-path="url(#clip1_209_35949)">
<path d="M26.9538 10.0553C26.8758 9.81206 26.6617 9.63932 26.4084 9.61633L22.9677 9.30156L21.6071 6.09315C21.5068 5.85802 21.2783 5.70581 21.0245 5.70581C20.7706 5.70581 20.5422 5.85802 20.4418 6.0937L19.0813 9.30156L15.6401 9.61633C15.3872 9.63988 15.1737 9.81206 15.0952 10.0553C15.0167 10.2985 15.0892 10.5652 15.2804 10.7334L17.8812 13.0314L17.1143 16.4349C17.0582 16.6852 17.1546 16.9439 17.3607 17.094C17.4715 17.1746 17.6011 17.2157 17.7318 17.2157C17.8444 17.2157 17.9562 17.1851 18.0565 17.1246L21.0245 15.3374L23.9913 17.1246C24.2084 17.2562 24.4821 17.2442 24.6878 17.094C24.8939 16.9435 24.9903 16.6846 24.9341 16.4349L24.1672 13.0314L26.768 10.7338C26.9592 10.5652 27.0323 10.2989 26.9538 10.0553Z" fill="url(#paint1_linear_209_35949)"/>
</g>
<g clip-path="url(#clip2_209_35949)">
<path d="M41.9538 10.0553C41.8758 9.81206 41.6617 9.63932 41.4084 9.61633L37.9677 9.30156L36.6071 6.09315C36.5068 5.85802 36.2783 5.70581 36.0245 5.70581C35.7706 5.70581 35.5422 5.85802 35.4418 6.0937L34.0813 9.30156L30.6401 9.61633C30.3872 9.63988 30.1737 9.81206 30.0952 10.0553C30.0167 10.2985 30.0892 10.5652 30.2804 10.7334L32.8812 13.0314L32.1143 16.4349C32.0582 16.6852 32.1546 16.9439 32.3607 17.094C32.4715 17.1746 32.6011 17.2157 32.7318 17.2157C32.8444 17.2157 32.9562 17.1851 33.0565 17.1246L36.0245 15.3374L38.9913 17.1246C39.2084 17.2562 39.4821 17.2442 39.6878 17.094C39.8939 16.9435 39.9903 16.6846 39.9341 16.4349L39.1672 13.0314L41.768 10.7338C41.9592 10.5652 42.0323 10.2989 41.9538 10.0553Z" fill="url(#paint2_linear_209_35949)"/>
</g>
<g clip-path="url(#clip3_209_35949)">
<path d="M56.9538 10.0553C56.8758 9.81206 56.6617 9.63932 56.4084 9.61633L52.9677 9.30156L51.6071 6.09315C51.5068 5.85802 51.2783 5.70581 51.0245 5.70581C50.7706 5.70581 50.5422 5.85802 50.4418 6.0937L49.0813 9.30156L45.6401 9.61633C45.3872 9.63988 45.1737 9.81206 45.0952 10.0553C45.0167 10.2985 45.0892 10.5652 45.2804 10.7334L47.8812 13.0314L47.1143 16.4349C47.0582 16.6852 47.1546 16.9439 47.3607 17.094C47.4715 17.1746 47.6011 17.2157 47.7318 17.2157C47.8444 17.2157 47.9562 17.1851 48.0565 17.1246L51.0245 15.3374L53.9913 17.1246C54.2084 17.2562 54.4821 17.2442 54.6878 17.094C54.8939 16.9435 54.9903 16.6846 54.9341 16.4349L54.1672 13.0314L56.768 10.7338C56.9592 10.5652 57.0323 10.2989 56.9538 10.0553Z" fill="url(#paint3_linear_209_35949)"/>
</g>
<path d="M71.485 10.0097C71.4066 9.76549 71.1917 9.59206 70.9374 9.56898L67.4829 9.25295L66.1169 6.03171C66.0162 5.79564 65.7868 5.64282 65.532 5.64282C65.2771 5.64282 65.0477 5.79564 64.947 6.03226L63.581 9.25295L60.126 9.56898C59.8721 9.59262 59.6577 9.76549 59.5789 10.0097C59.5001 10.2538 59.5729 10.5216 59.7649 10.6905L62.3761 12.9977L61.6061 16.4149C61.5498 16.6661 61.6466 16.9258 61.8535 17.0765C61.9647 17.1575 62.0948 17.1987 62.2261 17.1987C62.3392 17.1987 62.4514 17.168 62.5522 17.1073L65.532 15.313L68.5107 17.1073C68.7286 17.2394 69.0034 17.2274 69.2099 17.0765C69.4169 16.9254 69.5136 16.6656 69.4573 16.4149L68.6873 12.9977L71.2984 10.6909C71.4905 10.5216 71.5638 10.2543 71.485 10.0097Z" fill="#E6E6E6"/>
<mask id="mask0_209_35949" style="mask-type:alpha" maskUnits="userSpaceOnUse" x="59" y="4" width="7" height="15">
<path d="M65.3928 4H59V18.2385H65.3928V4Z" fill="#C4C4C4"/>
</mask>
<g mask="url(#mask0_209_35949)">
<path d="M71.5754 10.0099C71.4964 9.76571 71.2798 9.59228 71.0236 9.56922L67.543 9.25315L66.1666 6.03173C66.0652 5.79565 65.8341 5.64282 65.5773 5.64282C65.3205 5.64282 65.0893 5.79565 64.9878 6.03228L63.6115 9.25315L60.1304 9.56922C59.8746 9.59282 59.6586 9.76571 59.5792 10.0099C59.4998 10.2541 59.5731 10.5219 59.7666 10.6908L62.3975 12.9981L61.6217 16.4155C61.5649 16.6667 61.6625 16.9265 61.871 17.0772C61.983 17.1582 62.1141 17.1994 62.2463 17.1994C62.3603 17.1994 62.4734 17.1686 62.5749 17.1079L65.5773 15.3135L68.5785 17.1079C68.7981 17.2401 69.075 17.228 69.283 17.0772C69.4915 16.926 69.589 16.6662 69.5322 16.4155L68.7565 12.9981L71.3874 10.6912C71.5808 10.5219 71.6548 10.2545 71.5754 10.0099Z" fill="url(#paint4_linear_209_35949)"/>
</g>
</svg>
