<svg width="25" height="25" viewBox="0 0 25 25" fill="none" xmlns="http://www.w3.org/2000/svg">
<circle cx="12.5" cy="12.5" r="12.5" fill="black"/>
<circle cx="12.5" cy="12.5" r="12.5" fill="#79CCB9"/>
<path d="M11.135 15.128V14.708C11.135 14.204 11.2283 13.7747 11.415 13.42C11.611 13.056 11.9983 12.7013 12.577 12.356C12.913 12.16 13.165 11.992 13.333 11.852C13.5103 11.7027 13.627 11.5627 13.683 11.432C13.7483 11.292 13.781 11.138 13.781 10.97C13.781 10.6713 13.641 10.4147 13.361 10.2C13.0903 9.98535 12.7217 9.87802 12.255 9.87802C11.7697 9.87802 11.373 9.98535 11.065 10.2C10.7663 10.4053 10.5843 10.6807 10.519 11.026H8.72699C8.80166 10.494 8.99299 10.0133 9.30099 9.58402C9.60899 9.15468 10.0197 8.81868 10.533 8.57601C11.0463 8.32402 11.653 8.19802 12.353 8.19802C13.0157 8.19802 13.5943 8.31935 14.089 8.56201C14.5837 8.79535 14.971 9.11735 15.251 9.52802C15.531 9.93868 15.671 10.4147 15.671 10.956C15.671 11.4693 15.531 11.9127 15.251 12.286C14.9803 12.65 14.565 13.0047 14.005 13.35C13.6877 13.546 13.4497 13.7233 13.291 13.882C13.1323 14.0407 13.025 14.1947 12.969 14.344C12.9223 14.484 12.899 14.638 12.899 14.806V15.128H11.135ZM12.115 18.362C11.7977 18.362 11.5223 18.2453 11.289 18.012C11.0557 17.7787 10.939 17.5033 10.939 17.186C10.939 16.8593 11.0557 16.584 11.289 16.36C11.5223 16.1267 11.7977 16.01 12.115 16.01C12.4417 16.01 12.717 16.1267 12.941 16.36C13.1743 16.584 13.291 16.8593 13.291 17.186C13.291 17.5033 13.1743 17.7787 12.941 18.012C12.717 18.2453 12.4417 18.362 12.115 18.362Z" fill="white"/>
</svg>
