<svg fill="none" height="14" viewBox="0 0 12 14" width="12" xmlns="http://www.w3.org/2000/svg">
    <path
        d="m10.6986 1.45576c-1.65582-1.655858-4.3523-1.655858-6.0064 0l-4.587887 4.58438c-.0298826.02988-.045703.07031-.045703.1125 0 .04218.0158204.08261.045703.1125l.648632.64863c.029649.02952.069783.04609.111621.04609s.081972-.01657.111621-.04609l4.587883-4.58438c.56953-.56953 1.32715-.88242 2.13223-.88242.80507 0 1.56269.31289 2.13046.88242.56954.56954.88244 1.32715.88244 2.13047 0 .80508-.3129 1.56094-.88244 2.13047l-4.67577 4.67407-.75762.7576c-.7084.7084-1.85976.7084-2.56816 0-.34277-.3428-.53086-.7981-.53086-1.2832 0-.4852.18809-.94046.53086-1.28323l4.63886-4.63711c.11777-.11602.27246-.18106.43769-.18106h.00176c.16524 0 .31817.06504.43418.18106.11778.11777.18106.27246.18106.43769 0 .16348-.06504.31817-.18106.43418l-3.79159 3.78809c-.02989.02988-.04571.07031-.04571.1125s.01582.08261.04571.1125l.64863.64868c.02965.0295.06978.046.11162.046s.08197-.0165.11162-.046l3.78984-3.78989c.3498-.34981.5414-.81387.5414-1.30782 0-.49394-.19336-.95976-.5414-1.30781-.72246-.72246-1.89668-.7207-2.61914 0l-.45.45176-4.187102 4.18535c-.284184.28252-.509451.61864-.662738.98889-.153287.37024-.2315429.76722-.23023 1.16792 0 .8139.318164 1.5785.892968 2.1533.595902.5942 1.376362.8913 2.156832.8913s1.56094-.2971 2.15508-.8913l5.43511-5.43159c.7998-.80157 1.2428-1.86856 1.2428-3.00235.0018-1.13554-.4412-2.20254-1.2428-3.0041z"
        fill="#c4c4c4" />
</svg>