<svg width="19" height="19" viewBox="0 0 19 19" fill="none" xmlns="http://www.w3.org/2000/svg">
<path d="M17.7852 7.46987L16.3587 7.28858C16.2411 6.92666 16.0961 6.57759 15.927 6.24604L16.8079 5.11172C17.1645 4.65269 17.1228 4.00472 16.7153 3.61018L15.5202 2.41516C15.1219 2.00393 14.4739 1.96295 14.0141 2.3188L12.8813 3.1997C12.5497 3.0305 12.2006 2.88559 11.8379 2.76798L11.6566 1.34382C11.5883 0.77249 11.1035 0.342285 10.5291 0.342285H8.82942C8.25503 0.342285 7.77014 0.77249 7.70187 1.34155L7.52052 2.76798C7.15782 2.88559 6.80881 3.02974 6.47722 3.1997L5.34361 2.3188C4.88531 1.96295 4.23732 2.00393 3.842 2.41137L2.64694 3.60563C2.23568 4.00472 2.19395 4.65269 2.55057 5.11248L3.43151 6.24604C3.26155 6.57759 3.11738 6.92666 2.99977 7.28858L1.57555 7.46987C1.0042 7.5382 0.573975 8.02303 0.573975 8.59735V10.2969C0.573975 10.8713 1.0042 11.3562 1.57328 11.4244L2.99977 11.6058C3.11738 11.9677 3.2623 12.3167 3.43151 12.6483L2.55057 13.7826C2.19395 14.2417 2.23568 14.8896 2.64314 15.2842L3.83821 16.4791C4.23733 16.8897 4.88456 16.9306 5.34437 16.5748L6.47798 15.6939C6.80953 15.8638 7.1586 16.0087 7.52052 16.1256L7.70187 17.549C7.77014 18.1219 8.25503 18.552 8.82942 18.552H10.5291C11.1035 18.552 11.5883 18.1219 11.6566 17.5528L11.8379 16.1263C12.1999 16.0087 12.5489 15.8638 12.8805 15.6946L14.0149 16.5755C14.4739 16.9321 15.1219 16.8904 15.5164 16.4829L16.7115 15.288C17.1228 14.8888 17.1645 14.2417 16.8079 13.7819L15.927 12.6483C16.0969 12.3167 16.2418 11.9677 16.3587 11.6058L17.7822 11.4244C18.3535 11.3562 18.7837 10.8713 18.7837 10.2969V8.59735C18.7845 8.02303 18.3543 7.5382 17.7852 7.46987ZM9.67925 13.2409C7.58728 13.2409 5.88537 11.539 5.88537 9.44718C5.88537 7.35534 7.58728 5.65347 9.67925 5.65347C11.7711 5.65347 13.4731 7.35534 13.4731 9.44718C13.4731 11.539 11.7711 13.2409 9.67925 13.2409Z" fill="#707070"/>
</svg>
