<svg width="22" height="20" viewBox="0 0 22 20" fill="none" xmlns="http://www.w3.org/2000/svg">
<circle cx="11" cy="10" r="9.75" stroke="black" stroke-width="0.5"/>
<path d="M19.2963 6.18226C19.2963 8.0525 17.7801 9.56863 15.9099 9.56863C14.0397 9.56863 12.5235 8.0525 12.5235 6.18226C12.5235 4.31203 14.0397 2.7959 15.9099 2.7959C17.7801 2.7959 19.2963 4.31203 19.2963 6.18226Z" stroke="black" stroke-width="0.5"/>
<path d="M3.6361 16.6359C3.6361 16.6359 3.29579 15.4011 3.36337 14.9086C3.45497 14.2413 3.50391 13.8106 3.90883 13.2723C4.21214 12.869 4.90883 12.4541 4.90883 12.4541C4.90883 12.4541 5.99261 12.0096 6.72701 11.9086C7.57185 11.7925 8.07256 11.8325 8.90883 11.9996C9.72381 12.1624 10.1092 12.5004 10.9088 12.7268C11.5387 12.9052 12.5452 13.0905 12.5452 13.0905C12.5452 13.0905 13.9901 13.1796 14.9088 13.0905C15.699 13.0138 16.1732 13.0253 16.9088 12.7268C17.5295 12.475 17.8467 12.2441 18.3634 11.8177C18.9842 11.3055 19.3759 10.9965 19.727 10.2723C19.9525 9.80715 20.0689 9.28952 20.1815 8.63592C20.3264 7.79552 20.2725 6.4541 20.2725 6.4541" stroke="black" stroke-width="0.5"/>
<path d="M6.81823 19C6.81823 19 6.07996 17.9702 6.09096 17.3636C6.0983 16.9589 6.16564 16.7167 6.36369 16.3636C6.52383 16.0782 6.65511 15.9337 6.90914 15.7273C7.2172 15.477 7.43682 15.3826 7.81823 15.2727C8.39818 15.1056 9.36369 15.2727 9.36369 15.2727C9.36369 15.2727 10.3529 15.5819 11.0001 15.7273C11.598 15.8616 12.5455 16 12.5455 16C12.5455 16 13.9405 16.1314 14.8182 16C15.5851 15.8852 16.0357 15.805 16.7273 15.4545C17.3607 15.1336 17.6575 14.8424 18.1819 14.3636C18.6457 13.9401 18.8902 13.6799 19.2728 13.1818C19.6808 12.6506 19.8713 12.3208 20.1819 11.7273C20.5212 11.0788 20.9091 10 20.9091 10" stroke="black" stroke-width="0.5"/>
<path d="M15.9099 9.72683C15.9099 9.72683 14.4241 9.58396 13.5463 9.36327C12.6096 9.12779 11.1826 8.63599 11.1826 8.63599C11.1826 8.63599 9.49853 7.98266 8.36443 7.81781C7.52051 7.69514 7.03432 7.68391 6.18262 7.7269C5.39534 7.76664 4.93375 7.76052 4.18262 7.99963C3.62264 8.17789 3.29561 8.29222 2.81898 8.63599C2.41177 8.9297 2.18997 9.12838 1.90989 9.54508C1.67059 9.90111 1.45534 10.5451 1.45534 10.5451L1.18262 11.2724" stroke="black" stroke-width="0.5"/>
<path d="M9.09084 0.272461C9.09084 0.272461 7.66461 0.819735 6.99993 1.36337C6.27858 1.95335 5.94166 2.38715 5.45447 3.18155C5.10576 3.75016 4.93066 4.09177 4.7272 4.72701C4.57216 5.2111 4.45447 5.81792 4.45447 5.81792C4.45447 5.81792 4.30295 6.6598 4.27266 7.09064C4.25024 7.40938 4.27266 7.90882 4.27266 7.90882" stroke="black" stroke-width="0.5"/>
<path d="M13.6364 0.454102C13.6364 0.454102 12.2136 0.562808 11.5455 0.908647C10.8455 1.27104 10.4958 1.47308 9.90914 1.99956C9.40432 2.45256 9.0824 2.7853 8.72731 3.36319C8.50274 3.72868 8.27277 4.36319 8.27277 4.36319C8.27277 4.36319 8.04408 5.12952 8.00004 5.63592C7.96929 5.98961 7.93466 6.41594 8.00005 6.90865C8.0431 7.23312 8.18186 7.72683 8.18186 7.72683" stroke="black" stroke-width="0.5"/>
</svg>
