<svg fill="none" height="18" viewBox="0 0 22 18" width="22" xmlns="http://www.w3.org/2000/svg"><path d="m20.625 17.25s1.375 0 1.375-1.375-1.375-5.5-6.875-5.5-6.875 4.125-6.875 5.5 1.375 1.375 1.375 1.375zm-10.96975-1.375c-.01016-.0014-.02025-.0032-.03025-.0055.00138-.363.22963-1.4163 1.045-2.365.759-.8896 2.0927-1.7545 4.455-1.7545 2.3609 0 3.6946.8663 4.455 1.7545.8154.9487 1.0422 2.0034 1.045 2.365l-.011.0028c-.0064.001-.0128.0019-.0193.0027zm5.46975-8.25c.7293 0 1.4288-.28973 1.9445-.80546.5158-.51572.8055-1.21519.8055-1.94454s-.2897-1.42882-.8055-1.94454c-.5157-.51573-1.2152-.80546-1.9445-.80546s-1.4288.28973-1.9445.80546c-.5158.51572-.8055 1.21519-.8055 1.94454s.2897 1.42882.8055 1.94454c.5157.51573 1.2152.80546 1.9445.80546zm4.125-2.75c0 .5417-.1067 1.0781-.314 1.57857s-.5111.9552-.8942 1.33825c-.383.38304-.8378.68688-1.3382.89418-.5005.2073-1.0369.314-1.5786.314s-1.0781-.1067-1.5786-.314c-.5004-.2073-.9552-.51114-1.3382-.89418-.3831-.38305-.6869-.83778-.8942-1.33825s-.314-1.03687-.314-1.57857c0-1.09402.4346-2.14323 1.2082-2.91682.7736-.77358 1.8228-1.20818 2.9168-1.20818s2.1432.4346 2.9168 1.20818c.7736.77359 1.2082 1.8228 1.2082 2.91682zm-9.713 5.885c-.55003-.1732-1.117-.2871-1.69125-.3396-.32267-.0307-.64663-.0459-.97075-.0454-5.5 0-6.875 4.125-6.875 5.5 0 .9171.457875 1.375 1.375 1.375h5.797c-.20384-.4293-.30549-.8999-.297-1.375 0-1.3888.51838-2.8078 1.49875-3.993.33413-.4043.72325-.7824 1.16325-1.122zm-2.772.99c-.81379 1.2227-1.25339 2.6562-1.265 4.125h-4.125c0-.3575.2255-1.4163 1.045-2.3705.74937-.8745 2.0515-1.727 4.345-1.7531zm-4.7025-6.1875c0-1.09402.4346-2.14323 1.20818-2.91682.77359-.77358 1.8228-1.20818 2.91682-1.20818s2.14323.4346 2.91682 1.20818c.77358.77359 1.20818 1.8228 1.20818 2.91682s-.4346 2.14323-1.20818 2.91682c-.77359.77358-1.8228 1.20818-2.91682 1.20818s-2.14323-.4346-2.91682-1.20818c-.77358-.77359-1.20818-1.8228-1.20818-2.91682zm4.125-2.75c-.72935 0-1.42882.28973-1.94454.80546-.51573.51572-.80546 1.21519-.80546 1.94454s.28973 1.42882.80546 1.94454c.51572.51573 1.21519.80546 1.94454.80546s1.42882-.28973 1.94454-.80546c.51573-.51572.80546-1.21519.80546-1.94454s-.28973-1.42882-.80546-1.94454c-.51572-.51573-1.21519-.80546-1.94454-.80546z" fill="#7bcead"/></svg>