<svg width="17" height="18" viewBox="0 0 17 18" fill="none" xmlns="http://www.w3.org/2000/svg">
<defs>
<linearGradient id="paint0_linear_411_9713" x1="11.5283" y1="12.4169" x2="16.424" y2="7.86612" gradientUnits="userSpaceOnUse">
<stop stop-color="#FDA0FF"/>
<stop offset="0.3772" stop-color="#FEC1FF"/>
<stop offset="1" stop-color="white"/>
</linearGradient>
<linearGradient id="paint1_linear_411_9713" x1="10.2321" y1="16.7058" x2="17.0726" y2="10.3473" gradientUnits="userSpaceOnUse">
<stop stop-color="#FDA0FF"/>
<stop offset="0.3772" stop-color="#FEC1FF"/>
<stop offset="1" stop-color="white"/>
</linearGradient>
<linearGradient id="paint2_linear_411_9713" x1="15.9606" y1="12.9655" x2="12.6692" y2="8.19501" gradientUnits="userSpaceOnUse">
<stop stop-color="#FC54FF" stop-opacity="0"/>
<stop offset="0.2021" stop-color="#F851FE" stop-opacity="0.134"/>
<stop offset="0.3885" stop-color="#ED49FA" stop-opacity="0.258"/>
<stop offset="0.5688" stop-color="#DA3BF4" stop-opacity="0.377"/>
<stop offset="0.7454" stop-color="#C027EC" stop-opacity="0.495"/>
<stop offset="0.9176" stop-color="#9F0DE1" stop-opacity="0.609"/>
<stop offset="0.9947" stop-color="#8D00DB" stop-opacity="0.66"/>
</linearGradient>
<linearGradient id="paint3_linear_411_9713" x1="-6.93301" y1="22.3721" x2="19.7903" y2="-2.46798" gradientUnits="userSpaceOnUse">
<stop stop-color="#B31DE7"/>
<stop offset="1" stop-color="#FDA0FF"/>
</linearGradient>
<linearGradient id="paint4_linear_411_9713" x1="-2.55991" y1="23.2548" x2="19.5121" y2="2.7381" gradientUnits="userSpaceOnUse">
<stop stop-color="#B31DE7"/>
<stop offset="1" stop-color="#FDA0FF"/>
</linearGradient>
<linearGradient id="paint5_linear_411_9713" x1="-13.4257" y1="31.2464" x2="16.7992" y2="3.15141" gradientUnits="userSpaceOnUse">
<stop stop-color="#B31DE7"/>
<stop offset="1" stop-color="#FDA0FF"/>
</linearGradient>
<linearGradient id="paint6_linear_411_9713" x1="-6.03329" y1="26.4774" x2="11.9819" y2="9.73176" gradientUnits="userSpaceOnUse">
<stop stop-color="#B31DE7"/>
<stop offset="1" stop-color="#FDA0FF"/>
</linearGradient>
<linearGradient id="paint7_linear_411_9713" x1="-4.33375" y1="24.3408" x2="13.69" y2="7.58723" gradientUnits="userSpaceOnUse">
<stop stop-color="#B31DE7"/>
<stop offset="1" stop-color="#FDA0FF"/>
</linearGradient>
<linearGradient id="paint8_linear_411_9713" x1="-6.5242" y1="26.2558" x2="14.3159" y2="6.88434" gradientUnits="userSpaceOnUse">
<stop stop-color="#B31DE7"/>
<stop offset="1" stop-color="#FDA0FF"/>
</linearGradient>
<linearGradient id="paint9_linear_411_9713" x1="6.21513" y1="14.2919" x2="12.6568" y2="8.30422" gradientUnits="userSpaceOnUse">
<stop stop-color="#0056E0"/>
<stop offset="1" stop-color="#FC54FF"/>
</linearGradient>
<linearGradient id="paint10_linear_411_9713" x1="4.59503" y1="16.3976" x2="14.5664" y2="7.12883" gradientUnits="userSpaceOnUse">
<stop stop-color="#0056E0"/>
<stop offset="1" stop-color="#FC54FF"/>
</linearGradient>
<linearGradient id="paint11_linear_411_9713" x1="4.27234" y1="16.7447" x2="14.2437" y2="7.47599" gradientUnits="userSpaceOnUse">
<stop stop-color="#0056E0"/>
<stop offset="1" stop-color="#FC54FF"/>
</linearGradient>
<radialGradient id="paint12_radial_411_9713" cx="0" cy="0" r="1" gradientUnits="userSpaceOnUse" gradientTransform="translate(8.67508 13.0895) scale(8.14662 3.73356)">
<stop offset="0.3418" stop-color="#8D00DB" stop-opacity="0"/>
<stop offset="0.9947" stop-color="#8D00DB" stop-opacity="0.66"/>
</radialGradient>
<linearGradient id="paint13_linear_411_9713" x1="8.49165" y1="21.5506" x2="17.7992" y2="12.8989" gradientUnits="userSpaceOnUse">
<stop stop-color="#FDA0FF"/>
<stop offset="0.3772" stop-color="#FEC1FF"/>
<stop offset="1" stop-color="white"/>
</linearGradient>
<linearGradient id="paint14_linear_411_9713" x1="11.3632" y1="18.1156" x2="16.7189" y2="13.1373" gradientUnits="userSpaceOnUse">
<stop stop-color="#FDA0FF"/>
<stop offset="0.3772" stop-color="#FEC1FF"/>
<stop offset="1" stop-color="white"/>
</linearGradient>
<linearGradient id="paint15_linear_411_9713" x1="10.2478" y1="19.139" x2="15.6662" y2="14.1024" gradientUnits="userSpaceOnUse">
<stop stop-color="#B31DE7"/>
<stop offset="1" stop-color="#FDA0FF"/>
</linearGradient>
<linearGradient id="paint16_linear_411_9713" x1="10.6247" y1="17.9856" x2="16.0354" y2="12.9563" gradientUnits="userSpaceOnUse">
<stop stop-color="#B31DE7"/>
<stop offset="1" stop-color="#FDA0FF"/>
</linearGradient>
</defs>

<path d="M14.3252 7.74805C14.3295 8.58441 14.3297 9.42073 14.3257 10.257C14.4328 10.4122 14.5397 10.5674 14.6465 10.7222C14.7564 10.4185 14.8659 10.1152 14.9749 9.8122C14.9772 9.12533 14.9764 8.43845 14.9724 7.75154C14.7567 7.75031 14.5409 7.74918 14.3252 7.74805Z" fill="url(#paint0_linear_411_9713)"/>
<path d="M14.3255 10.2574C14.3199 11.4087 14.3065 12.5599 14.2852 13.7113C14.4994 13.7073 14.7137 13.7031 14.928 13.6986C14.9548 12.4033 14.9703 11.1079 14.9748 9.8125C14.7584 9.96041 14.542 10.1088 14.3255 10.2574Z" fill="url(#paint1_linear_411_9713)"/>
<path d="M14.3251 7.74805C14.3354 9.73566 14.3221 11.7233 14.2852 13.711C14.4994 13.707 14.7137 13.7028 14.928 13.6983C14.9689 11.7161 14.9837 9.73381 14.9723 7.75158C14.7566 7.75031 14.5408 7.74918 14.3251 7.74805Z" fill="url(#paint2_linear_411_9713)"/>
<path d="M11.9867 2.83774C10.9289 2.0915 9.87899 1.34672 8.84197 0.610997C8.63339 0.463001 8.36676 0.463001 8.15822 0.610997C5.59398 2.43014 2.95051 4.30456 0.305564 6.12084C-0.0946271 6.39549 -0.103725 7.00225 0.290064 7.26629C2.89196 9.0127 5.53834 10.8506 8.1514 12.6668C8.36394 12.8145 8.63621 12.8147 8.84875 12.6668C9.90553 11.9323 10.9677 11.1943 12.0302 10.4602C12.0387 7.91936 12.0243 5.3786 11.9867 2.83774Z" fill="url(#paint3_linear_411_9713)"/>
<path d="M16.6947 6.12055C15.1194 5.03881 13.5447 3.93645 11.9869 2.8374C10.7017 5.15251 10.7016 8.13151 12.0304 10.4599C13.5952 9.37869 15.1606 8.3061 16.7103 7.26601C17.104 7.00205 17.0949 6.3952 16.6947 6.12055Z" fill="url(#paint4_linear_411_9713)"/>
<path d="M3.97561 6.65555C3.95897 7.61068 3.97114 11.8446 3.97881 11.8448C3.99566 13.3472 6.33838 14.0715 8.50007 14.0704C8.50007 10.8578 8.50007 7.64521 8.50007 4.43262C6.33531 4.43194 3.99027 5.15311 3.97561 6.65555Z" fill="url(#paint5_linear_411_9713)"/>
<path d="M8.50098 4.43262V14.0704C10.6627 14.0714 13.0054 13.3472 13.0222 11.8448C13.0299 11.8448 13.0421 7.61095 13.0254 6.65555C13.0108 5.15289 10.6657 4.43207 8.50098 4.43262Z" fill="url(#paint6_linear_411_9713)"/>
<path d="M12.3764 11.8499C12.3829 11.8499 12.3934 7.60824 12.3791 6.65111C12.3665 5.14514 10.3565 4.43216 8.50098 4.43262V14.0704C10.3539 14.0712 12.3619 13.3561 12.3764 11.8499Z" fill="url(#paint7_linear_411_9713)"/>
<path d="M8.49977 4.43262C7.57201 4.4323 6.567 5.12864 6.56069 6.64191C6.55357 7.60257 6.55879 11.8606 6.56208 11.8606C6.56928 13.3741 7.57332 14.0707 8.49977 14.0704C10.3527 14.0712 12.3607 13.3561 12.3751 11.8499C12.3817 11.8499 12.3922 7.60824 12.3779 6.65111C12.3653 5.14514 10.3553 4.43212 8.49977 4.43262Z" fill="url(#paint8_linear_411_9713)"/>
<path d="M8.5004 10.3545C6.35518 10.3555 4.61811 11.0219 4.62502 11.8498C4.62591 11.969 4.66289 12.0854 4.73154 12.1972C7.2441 12.2175 9.75666 12.2175 12.2693 12.1972C12.3379 12.0854 12.3749 11.969 12.3758 11.8498C12.3827 11.0219 10.6456 10.3557 8.5004 10.3545Z" fill="url(#paint9_linear_411_9713)"/>
<path d="M8.49982 13.3736C10.3247 13.3735 11.8589 12.8623 12.2687 12.1973C11.871 11.5387 10.335 11.0519 8.49982 11.0513C6.66461 11.0519 5.12866 11.5388 4.73096 12.1973C5.14071 12.8621 6.67501 13.3738 8.49982 13.3736Z" fill="url(#paint10_linear_411_9713)"/>
<path d="M8.49982 13.3736C10.3247 13.3735 11.8589 12.8623 12.2687 12.1973C11.871 11.5387 10.335 11.0519 8.49982 11.0513C6.66461 11.0519 5.12866 11.5388 4.73096 12.1973C5.14071 12.8621 6.67501 13.3738 8.49982 13.3736Z" fill="url(#paint11_linear_411_9713)"/>
<path d="M12.3758 11.8498C12.3682 12.6773 10.6312 13.373 8.5004 13.3736C6.36963 13.3728 4.6326 12.6772 4.62502 11.8498C4.61811 11.022 6.35518 10.3556 8.5004 10.3545C10.6456 10.3557 12.3827 11.0219 12.3758 11.8498Z" fill="url(#paint12_radial_411_9713)"/>
<path d="M14.6302 12.3296C14.5125 12.3313 14.4021 12.367 14.3063 12.4269C14.2851 14.003 14.2491 15.5791 14.1982 17.1552C14.3038 17.1518 14.4093 17.1482 14.5148 17.1445C14.5084 17.3347 14.6443 17.4833 14.8187 17.4767C14.9931 17.4704 15.1407 17.3108 15.1479 17.1214C15.1997 15.7496 15.2384 14.378 15.2638 13.0062C15.2709 12.6275 14.9866 12.3249 14.6302 12.3296Z" fill="url(#paint13_linear_411_9713)"/>
<path d="M14.3057 12.4272C14.1114 12.5489 13.9787 12.7729 13.9749 13.0281C13.9543 14.4073 13.923 15.7865 13.881 17.1657C13.8753 17.3563 14.0118 17.5059 14.1862 17.4999C14.3607 17.4937 14.5076 17.3347 14.5141 17.1449C14.561 15.7692 14.596 14.3935 14.619 13.0178C14.6232 12.7635 14.4967 12.5439 14.3057 12.4272Z" fill="url(#paint14_linear_411_9713)"/>
<path d="M15.2501 13.692C15.0358 13.6966 14.8215 13.701 14.6073 13.7053C14.6028 13.9346 14.598 14.1638 14.5928 14.3931C14.8065 14.3883 15.0203 14.3832 15.2341 14.3779C15.4111 14.3733 15.5587 14.2163 15.5634 14.0272C15.568 13.838 15.4276 13.6883 15.2501 13.692Z" fill="url(#paint15_linear_411_9713)"/>
<path d="M14.9209 14.0426C14.9252 13.8529 14.7844 13.7022 14.6069 13.7056C14.3926 13.7098 14.1783 13.7138 13.9641 13.7176C13.7865 13.7206 13.6401 13.8776 13.6368 14.0683C13.6334 14.259 13.774 14.4109 13.9511 14.4072C14.1648 14.4029 14.3786 14.3983 14.5924 14.3935C14.7694 14.3894 14.9167 14.2324 14.9209 14.0426Z" fill="url(#paint16_linear_411_9713)"/>
</svg>
