<svg width="12" height="12" viewBox="0 0 12 12" fill="none" xmlns="http://www.w3.org/2000/svg">
<defs>
<linearGradient id="paint0_linear_209_35940" x1="1.75734" y1="10.2426" x2="10.2426" y2="1.75737" gradientUnits="userSpaceOnUse">
<stop stop-color="#FF4747"/>
<stop offset="1" stop-color="#FFF200"/>
</linearGradient>
<radialGradient id="paint1_radial_209_35940" cx="0" cy="0" r="1" gradientUnits="userSpaceOnUse" gradientTransform="translate(6 6) scale(6)">
<stop stop-color="#FF4D5F" stop-opacity="0.6"/>
<stop offset="1" stop-color="#FFF200" stop-opacity="0"/>
</radialGradient>
<linearGradient id="paint2_linear_209_35940" x1="-9.93096" y1="21.9306" x2="9.33672" y2="2.66299" gradientUnits="userSpaceOnUse">
<stop stop-color="#FF4D5E"/>
<stop offset="1" stop-color="#FFF200"/>
</linearGradient>
<linearGradient id="paint3_linear_209_35940" x1="-2.71187" y1="14.7126" x2="14.3052" y2="-2.30442" gradientUnits="userSpaceOnUse">
<stop stop-color="#FFF200"/>
<stop offset="0.2096" stop-color="#FFF52F"/>
<stop offset="0.7578" stop-color="#FEFCA6"/>
<stop offset="1" stop-color="#FEFFD6"/>
</linearGradient>
<radialGradient id="paint4_radial_209_35940" cx="0" cy="0" r="1" gradientUnits="userSpaceOnUse" gradientTransform="translate(6.00099 5.9998) scale(3.60351)">
<stop stop-color="#FF4D5F" stop-opacity="0.6"/>
<stop offset="0.0246" stop-color="#FF525C" stop-opacity="0.585"/>
<stop offset="0.37" stop-color="#FF9635" stop-opacity="0.378"/>
<stop offset="0.6591" stop-color="#FFC818" stop-opacity="0.205"/>
<stop offset="0.8776" stop-color="#FFE707" stop-opacity="0.073"/>
<stop offset="1" stop-color="#FFF200" stop-opacity="0"/>
</radialGradient>
<linearGradient id="paint5_linear_209_35940" x1="-0.665011" y1="12.666" x2="7.50776" y2="4.49324" gradientUnits="userSpaceOnUse">
<stop stop-color="#FFFA78"/>
<stop offset="0.458" stop-color="#FFFCB4"/>
<stop offset="1" stop-color="white"/>
</linearGradient>
<linearGradient id="paint6_linear_209_35940" x1="3.97462" y1="8.04196" x2="7.53834" y2="4.47828" gradientUnits="userSpaceOnUse">
<stop stop-color="#FFFA78"/>
<stop offset="0.458" stop-color="#FFFCB4"/>
<stop offset="1" stop-color="white"/>
</linearGradient>
</defs>
<path d="M6 12C9.31368 12 12 9.31368 12 6C12 2.68629 9.31368 0 6 0C2.68629 0 0 2.68629 0 6C0 9.31368 2.68629 12 6 12Z" fill="url(#paint0_linear_209_35940)"/>
<path d="M6 12C9.31368 12 12 9.31368 12 6C12 2.68629 9.31368 0 6 0C2.68629 0 0 2.68629 0 6C0 9.31368 2.68629 12 6 12Z" fill="url(#paint1_radial_209_35940)"/>
<path d="M6.00034 1.29077C3.49035 1.30392 1.30489 3.48932 1.29175 5.99936C1.30484 8.50935 3.49035 10.6948 6.00034 10.708C8.51032 10.6948 10.6958 8.50943 10.709 5.99936C10.6958 3.48935 8.51032 1.30394 6.00034 1.29077Z" fill="url(#paint2_linear_209_35940)"/>
<path d="M9.56566 5.88974C9.30854 5.56958 9.2219 5.14379 9.3319 4.75168C9.35382 4.67357 9.31614 4.59003 9.24382 4.54951C8.88182 4.34706 8.63654 3.98418 8.5835 3.57625C8.5727 3.49382 8.50694 3.42802 8.42454 3.41729C8.01662 3.36421 7.65369 3.11894 7.45126 2.75696C7.41078 2.68463 7.32721 2.64697 7.24911 2.66886C6.85698 2.7789 6.43121 2.69227 6.11105 2.43514C6.04649 2.38327 5.95553 2.38327 5.89096 2.43514C5.5708 2.69226 5.14503 2.77888 4.7529 2.66886C4.67478 2.64693 4.59121 2.68468 4.55073 2.75696C4.3483 3.11891 3.98537 3.36421 3.57746 3.41729C3.49503 3.42807 3.42927 3.49382 3.41851 3.57625C3.3654 3.98418 3.12015 4.34708 2.75818 4.54951C2.6859 4.59001 2.64814 4.67357 2.67008 4.75168C2.78009 5.14379 2.69347 5.56958 2.43636 5.88974C2.38449 5.9543 2.38449 6.04529 2.43636 6.10984C2.69347 6.42997 2.78009 6.85578 2.67008 7.2479C2.64814 7.32598 2.6859 7.40957 2.75818 7.45006C3.12013 7.6525 3.36542 8.01545 3.41851 8.42337C3.4293 8.50577 3.49503 8.57153 3.57746 8.58225C3.98537 8.63545 4.3483 8.88065 4.55073 9.24265C4.59121 9.31489 4.67478 9.35265 4.75288 9.33073C5.14498 9.22065 5.57078 9.30737 5.89093 9.56441C5.9555 9.61633 6.04646 9.61633 6.11103 9.56441C6.43117 9.30737 6.85696 9.22065 7.24909 9.33073C7.32721 9.35265 7.41078 9.31489 7.45126 9.24265C7.65371 8.88057 8.01662 8.63537 8.42454 8.58225C8.50694 8.57153 8.5727 8.50577 8.5835 8.42337C8.63654 8.01545 8.88182 7.6525 9.24382 7.45009C9.31614 7.40966 9.35382 7.32603 9.3319 7.24794C9.2219 6.85578 9.30854 6.43004 9.56566 6.10989C9.61742 6.04529 9.61742 5.9543 9.56566 5.88974Z" fill="url(#paint3_linear_209_35940)"/>
<path d="M9.56566 5.88974C9.30854 5.56958 9.2219 5.14379 9.3319 4.75168C9.35382 4.67357 9.31614 4.59003 9.24382 4.54951C8.88182 4.34706 8.63654 3.98418 8.5835 3.57625C8.5727 3.49382 8.50694 3.42802 8.42454 3.41729C8.01662 3.36421 7.65369 3.11894 7.45126 2.75696C7.41078 2.68463 7.32721 2.64697 7.24911 2.66886C6.85698 2.7789 6.43121 2.69227 6.11105 2.43514C6.04649 2.38327 5.95553 2.38327 5.89096 2.43514C5.5708 2.69226 5.14503 2.77888 4.7529 2.66886C4.67478 2.64693 4.59121 2.68468 4.55073 2.75696C4.3483 3.11891 3.98537 3.36421 3.57746 3.41729C3.49503 3.42807 3.42927 3.49382 3.41851 3.57625C3.3654 3.98418 3.12015 4.34708 2.75818 4.54951C2.6859 4.59001 2.64814 4.67357 2.67008 4.75168C2.78009 5.14379 2.69347 5.56958 2.43636 5.88974C2.38449 5.9543 2.38449 6.04529 2.43636 6.10984C2.69347 6.42997 2.78009 6.85578 2.67008 7.2479C2.64814 7.32598 2.6859 7.40957 2.75818 7.45006C3.12013 7.6525 3.36542 8.01545 3.41851 8.42337C3.4293 8.50577 3.49503 8.57153 3.57746 8.58225C3.98537 8.63545 4.3483 8.88065 4.55073 9.24265C4.59121 9.31489 4.67478 9.35265 4.75288 9.33073C5.14498 9.22065 5.57078 9.30737 5.89093 9.56441C5.9555 9.61633 6.04646 9.61633 6.11103 9.56441C6.43117 9.30737 6.85696 9.22065 7.24909 9.33073C7.32721 9.35265 7.41078 9.31489 7.45126 9.24265C7.65371 8.88057 8.01662 8.63537 8.42454 8.58225C8.50694 8.57153 8.5727 8.50577 8.5835 8.42337C8.63654 8.01545 8.88182 7.6525 9.24382 7.45009C9.31614 7.40966 9.35382 7.32603 9.3319 7.24794C9.2219 6.85578 9.30854 6.43004 9.56566 6.10989C9.61742 6.04529 9.61742 5.9543 9.56566 5.88974Z" fill="url(#paint4_radial_209_35940)"/>
<path d="M6.00122 3.71753C4.75111 3.71903 3.7205 4.7496 3.71899 5.99976C3.72047 7.24987 4.75111 8.28049 6.00122 8.28201C7.25135 8.28049 8.28197 7.24989 8.28341 5.99976C8.28197 4.74963 7.25133 3.71899 6.00122 3.71753Z" fill="url(#paint5_linear_209_35940)"/>
<path d="M6.35937 7.56144C5.1045 7.56188 4.07604 6.53509 4.07921 5.28236C4.07989 5.05975 4.11314 4.84457 4.17403 4.64087C3.88825 5.02171 3.7177 5.49168 3.71777 6.00015C3.71925 7.25026 4.74989 8.28084 6 8.28236C7.02928 8.28204 7.90713 7.58218 8.18902 6.64035C7.77096 7.1957 7.10583 7.56055 6.35937 7.56144Z" fill="url(#paint6_linear_209_35940)"/>
</svg>
