<svg width="156" height="38" viewBox="0 0 156 38" fill="none" xmlns="http://www.w3.org/2000/svg">
<path d="M10.5055 29.4C13.5055 29.4 15.9455 28.72 17.8255 27.32C19.7055 25.92 20.6655 24.04 20.6655 21.72C20.6655 19.44 19.8255 17.76 17.7855 16.44C16.7855 15.76 15.8655 15.24 15.0655 14.88C14.3055 14.52 13.1455 14.04 11.6255 13.48L9.22547 12.52L7.14547 11.48C6.34547 11.04 5.70547 10.6 5.26547 10.2C4.42547 9.4 3.66547 8.16 3.66547 6.84C3.66547 5.32 4.34547 4.04 5.74547 3.04C7.14547 2 8.86547 1.48 10.9855 1.48C13.1855 1.48 15.0255 2.08 16.5055 3.32C17.9855 4.52 18.7055 6.04 18.7055 7.84H19.5855C19.5855 5.8 18.7055 4.08 16.9855 2.68C15.2655 1.28 13.1055 0.599998 10.5855 0.599998C7.78547 0.599998 5.46547 1.32 3.62547 2.72C1.82547 4.12 0.905469 5.96 0.905469 8.16C0.905469 10.04 1.86547 11.68 2.82547 12.76C3.30547 13.28 4.02547 13.8 4.98547 14.36L7.26547 15.56L9.82547 16.6C10.9055 17.04 11.7455 17.36 12.3455 17.64C12.9455 17.88 13.6655 18.24 14.4655 18.68C15.2655 19.12 15.8655 19.52 16.2655 19.92C17.1055 20.72 17.8255 21.92 17.8255 23.2C17.8255 24.76 17.1055 26.04 15.6255 27.04C14.1455 28.04 12.3055 28.52 10.0255 28.52C7.54547 28.52 5.42547 27.88 3.70547 26.56C1.98547 25.24 1.14547 23.64 1.14547 21.72H0.265469C0.265469 23.88 1.26547 25.72 3.22547 27.2C5.18547 28.68 7.62547 29.4 10.5055 29.4ZM36.5186 8.6C33.6386 8.6 31.1186 9.96 29.5586 12.2V8.8L25.9986 9.68V37.8H29.5586V26.2C31.2786 28.32 33.5986 29.4 36.4386 29.4C39.1186 29.4 41.3586 28.4 43.1986 26.4C45.0386 24.4 45.9586 21.92 45.9586 19C45.9586 16.08 45.0386 13.6 43.1986 11.6C41.3586 9.6 39.1186 8.6 36.5186 8.6ZM35.5186 28.24C32.9986 28.24 30.8386 26.8 29.5586 24.52V13.72C30.9586 11.2 33.1986 9.76 35.6386 9.76C37.5986 9.76 39.1586 10.6 40.3986 12.32C41.6386 14 42.2386 16.24 42.2386 19C42.2386 24.6 39.5186 28.24 35.5186 28.24ZM71.8302 14.4H55.3102V0.999998H51.7502V29H55.3102V15.2H71.8302V29H75.3902V0.999998H71.8302V14.4ZM86.6383 15.2H99.1983V14.4H86.6383V1.8H102.398V0.999998H83.0783V29H102.798V28.2H86.6383V15.2ZM125.275 19.84C124.515 18.48 123.075 17.48 120.995 16.88C123.475 16.6 125.475 15.72 127.035 14.24C128.595 12.76 129.395 11 129.395 8.96C129.395 6.68 128.435 4.8 126.475 3.28C124.555 1.76 122.155 0.999998 119.235 0.999998H108.235V29H111.795V17H118.595C119.595 17.44 120.395 18.2 121.035 19.24L125.275 26.68C125.835 27.64 126.515 28.4 127.355 29H131.435C130.435 28.32 129.595 27.28 128.875 25.96L125.275 19.84ZM118.555 1.8C122.835 1.8 125.675 4.64 125.675 9C125.675 13.36 122.835 16.2 118.555 16.2H111.795V1.8H118.555ZM139.138 15.2H151.698V14.4H139.138V1.8H154.898V0.999998H135.578V29H155.298V28.2H139.138V15.2Z" fill="white"/>
</svg>
