<svg width="156" height="158" viewBox="0 0 156 158" fill="none" xmlns="http://www.w3.org/2000/svg">
<path d="M0 8C0 3.58172 3.58172 0 8 0H148C152.418 0 156 3.58172 156 8V150C156 154.418 152.418 158 148 158H8C3.58172 158 0 154.418 0 150V8Z" fill="#F2F2F2" fill-opacity="0.8"/>
<path d="M47.2765 50.9763C48.1046 50.9763 48.5531 50.4933 48.5531 49.6652V40.3844C48.5531 35.8992 50.8992 33.5531 55.3844 33.5531H64.6997C65.5278 33.5531 66.0108 33.1046 66.0108 32.2765C66.0108 31.4485 65.5278 31 64.6997 31H55.3154C49.2086 31 46 34.1741 46 40.2464V49.6652C46 50.4933 46.4485 50.9763 47.2765 50.9763ZM108.723 50.9763C109.551 50.9763 110 50.4933 110 49.6652V40.2464C110 34.2431 106.826 31 100.719 31H91.3003C90.4722 31 89.9892 31.4485 89.9892 32.2765C89.9892 33.1046 90.4722 33.5531 91.3003 33.5531H100.616C104.963 33.5531 107.447 35.8992 107.447 40.3844V49.6652C107.447 50.4933 107.895 50.9763 108.723 50.9763ZM75.1881 67.6404H75.4987C78.2933 67.6404 79.7078 66.2604 79.7078 63.4313V52.8394C79.7078 52.0458 79.3283 51.6663 78.5348 51.6663C77.7757 51.6663 77.3617 52.0458 77.3617 52.8394V63.7418C77.3617 64.6733 76.6027 65.2598 75.8437 65.2598H74.6706C74.0151 65.2598 73.5321 65.7429 73.5321 66.3984C73.5321 67.2264 74.0496 67.6404 75.1881 67.6404ZM65.5968 59.7051C66.6318 59.7051 67.2873 59.0496 67.2873 58.0146V53.4259C67.2873 52.3563 66.6318 51.7008 65.5968 51.7008C64.5962 51.7008 63.9407 52.3908 63.9407 53.4259V58.0146C63.9407 59.0496 64.5962 59.7051 65.5968 59.7051ZM90.0927 59.7051C91.0933 59.7051 91.7488 59.0496 91.7488 58.0146V53.4259C91.7488 52.3908 91.0933 51.7008 90.0927 51.7008C89.0577 51.7008 88.3677 52.3563 88.3677 53.4259V58.0146C88.3677 59.0496 89.0577 59.7051 90.0927 59.7051ZM77.7067 78.1978C81.5019 78.1978 85.297 76.6108 88.0916 73.8162C88.2987 73.6437 88.5057 73.3332 88.5057 72.8846C88.5057 72.1946 87.9881 71.7461 87.3671 71.7461C86.9876 71.7461 86.6771 71.8496 86.2286 72.3326C84.1585 74.4027 80.9499 75.8863 77.7067 75.8863C74.4636 75.8863 71.2895 74.4027 69.1849 72.3326C68.7709 71.8841 68.4604 71.7461 68.0464 71.7461C67.4253 71.7461 66.9078 72.1946 66.9078 72.8846C66.9078 73.2987 67.1148 73.6092 67.3218 73.8162C70.0474 76.6453 73.9116 78.1978 77.7067 78.1978ZM55.3154 95H64.6997C65.5278 95 66.0108 94.5515 66.0108 93.7234C66.0108 92.8954 65.5278 92.4469 64.6997 92.4469H55.3844C50.8992 92.4469 48.5531 90.1008 48.5531 85.5811V76.3348C48.5531 75.5067 48.1046 74.9892 47.2765 74.9892C46.4485 74.9892 46 75.5067 46 76.3348V85.7191C46 91.8259 49.2086 95 55.3154 95ZM91.3003 95H100.719C106.826 95 110 91.7224 110 85.7191V76.3348C110 75.5067 109.551 74.9892 108.723 74.9892C107.895 74.9892 107.447 75.5067 107.447 76.3348V85.5811C107.447 90.1008 104.963 92.4469 100.616 92.4469H91.3003C90.4722 92.4469 89.9892 92.8954 89.9892 93.7234C89.9892 94.5515 90.4722 95 91.3003 95Z" fill="white"/>
<path d="M50.5135 135H52.6552V130.111H57.6771V128.368H52.6552V124.823H58.1503V123.022H50.5135V135ZM61.8927 135.149C63.088 135.149 64.0509 134.635 64.5489 133.755H64.69V135H66.732V128.799C66.732 126.882 65.4205 125.753 63.088 125.753C60.9298 125.753 59.4688 126.766 59.2696 128.293L59.2613 128.368H61.212L61.2203 128.334C61.4278 127.737 62.0421 127.396 62.9884 127.396C64.1007 127.396 64.69 127.895 64.69 128.799V129.58L62.3575 129.721C60.1495 129.854 58.9127 130.8 58.9127 132.418V132.435C58.9127 134.087 60.1661 135.149 61.8927 135.149ZM60.9547 132.335V132.319C60.9547 131.572 61.4942 131.148 62.648 131.074L64.69 130.941V131.671C64.69 132.75 63.7686 133.564 62.5235 133.564C61.6104 133.564 60.9547 133.107 60.9547 132.335ZM72.699 135.183C74.9983 135.183 76.3348 133.946 76.6336 132.086L76.6502 132.02L74.6995 132.028L74.6829 132.062C74.4256 133.016 73.7698 133.506 72.699 133.506C71.2962 133.506 70.4578 132.377 70.4578 130.451V130.435C70.4578 128.534 71.2879 127.421 72.699 127.421C73.8279 127.421 74.5003 128.052 74.6912 128.932L74.6995 128.957H76.6502V128.924C76.4178 127.048 75.0232 125.753 72.6907 125.753C69.9598 125.753 68.3577 127.504 68.3577 130.435V130.451C68.3577 133.415 69.9681 135.183 72.699 135.183ZM82.0942 135.183C84.5596 135.183 85.7715 133.763 86.062 132.593L86.0869 132.518H84.1196L84.0947 132.576C83.8955 132.991 83.2563 133.556 82.1357 133.556C80.7329 133.556 79.853 132.609 79.8281 130.982H86.1699V130.302C86.1699 127.562 84.5762 125.753 81.9946 125.753C79.4131 125.753 77.7612 127.621 77.7612 130.476V130.484C77.7612 133.373 79.3965 135.183 82.0942 135.183ZM82.0195 127.372C83.1733 127.372 84.0117 128.11 84.1528 129.596H79.8447C80.0024 128.152 80.8657 127.372 82.0195 127.372ZM92.1689 135H94.3105V123.022H92.1689V135ZM96.8575 135H101.348C104.934 135 106.984 132.8 106.984 128.965V128.949C106.984 125.197 104.909 123.022 101.348 123.022H96.8575V135ZM98.9991 133.199V124.823H101.066C103.415 124.823 104.801 126.351 104.801 128.982V128.999C104.801 131.688 103.448 133.199 101.066 133.199H98.9991Z" fill="black"/>
</svg>
